<mxfile host="app.diagrams.net" modified="2024-04-10T14:32:38.398Z" agent="Mozilla/5.0 (Windows NT 10.0; Win64; x64) AppleWebKit/537.36 (KHTML, like Gecko) Chrome/123.0.0.0 Safari/537.36 Edg/123.0.0.0" etag="LrMrAu_4Qo_AnBuLkR0p" version="24.2.3" type="google">
  <diagram name="Page-1" id="V322s12j-XTgz0Hm7foN">
    <mxGraphModel grid="1" page="1" gridSize="10" guides="1" tooltips="1" connect="1" arrows="1" fold="1" pageScale="1" pageWidth="827" pageHeight="1169" math="0" shadow="0">
      <root>
        <mxCell id="0" />
        <mxCell id="1" parent="0" />
        <mxCell id="cto1Rn3HJPF4hdV79vc3-1" value="LECTURER" style="shape=table;startSize=30;container=1;collapsible=1;childLayout=tableLayout;fixedRows=1;rowLines=0;fontStyle=1;align=center;resizeLast=1;html=1;fillColor=#FFFFFF;" vertex="1" parent="1">
          <mxGeometry x="40" y="350" width="180" height="210" as="geometry" />
        </mxCell>
        <mxCell id="cto1Rn3HJPF4hdV79vc3-2" value="" style="shape=tableRow;horizontal=0;startSize=0;swimlaneHead=0;swimlaneBody=0;fillColor=none;collapsible=0;dropTarget=0;points=[[0,0.5],[1,0.5]];portConstraint=eastwest;top=0;left=0;right=0;bottom=1;" vertex="1" parent="cto1Rn3HJPF4hdV79vc3-1">
          <mxGeometry y="30" width="180" height="30" as="geometry" />
        </mxCell>
        <mxCell id="cto1Rn3HJPF4hdV79vc3-3" value="PK" style="shape=partialRectangle;connectable=0;fillColor=none;top=0;left=0;bottom=0;right=0;fontStyle=1;overflow=hidden;whiteSpace=wrap;html=1;" vertex="1" parent="cto1Rn3HJPF4hdV79vc3-2">
          <mxGeometry width="30" height="30" as="geometry">
            <mxRectangle width="30" height="30" as="alternateBounds" />
          </mxGeometry>
        </mxCell>
        <mxCell id="cto1Rn3HJPF4hdV79vc3-4" value="LecturerID" style="shape=partialRectangle;connectable=0;fillColor=none;top=0;left=0;bottom=0;right=0;align=left;spacingLeft=6;fontStyle=5;overflow=hidden;whiteSpace=wrap;html=1;" vertex="1" parent="cto1Rn3HJPF4hdV79vc3-2">
          <mxGeometry x="30" width="150" height="30" as="geometry">
            <mxRectangle width="150" height="30" as="alternateBounds" />
          </mxGeometry>
        </mxCell>
        <mxCell id="cto1Rn3HJPF4hdV79vc3-5" value="" style="shape=tableRow;horizontal=0;startSize=0;swimlaneHead=0;swimlaneBody=0;fillColor=none;collapsible=0;dropTarget=0;points=[[0,0.5],[1,0.5]];portConstraint=eastwest;top=0;left=0;right=0;bottom=0;" vertex="1" parent="cto1Rn3HJPF4hdV79vc3-1">
          <mxGeometry y="60" width="180" height="30" as="geometry" />
        </mxCell>
        <mxCell id="cto1Rn3HJPF4hdV79vc3-6" value="" style="shape=partialRectangle;connectable=0;fillColor=none;top=0;left=0;bottom=0;right=0;editable=1;overflow=hidden;whiteSpace=wrap;html=1;" vertex="1" parent="cto1Rn3HJPF4hdV79vc3-5">
          <mxGeometry width="30" height="30" as="geometry">
            <mxRectangle width="30" height="30" as="alternateBounds" />
          </mxGeometry>
        </mxCell>
        <mxCell id="cto1Rn3HJPF4hdV79vc3-7" value="LecturerName" style="shape=partialRectangle;connectable=0;fillColor=none;top=0;left=0;bottom=0;right=0;align=left;spacingLeft=6;overflow=hidden;whiteSpace=wrap;html=1;" vertex="1" parent="cto1Rn3HJPF4hdV79vc3-5">
          <mxGeometry x="30" width="150" height="30" as="geometry">
            <mxRectangle width="150" height="30" as="alternateBounds" />
          </mxGeometry>
        </mxCell>
        <mxCell id="cto1Rn3HJPF4hdV79vc3-8" value="" style="shape=tableRow;horizontal=0;startSize=0;swimlaneHead=0;swimlaneBody=0;fillColor=none;collapsible=0;dropTarget=0;points=[[0,0.5],[1,0.5]];portConstraint=eastwest;top=0;left=0;right=0;bottom=0;" vertex="1" parent="cto1Rn3HJPF4hdV79vc3-1">
          <mxGeometry y="90" width="180" height="30" as="geometry" />
        </mxCell>
        <mxCell id="cto1Rn3HJPF4hdV79vc3-9" value="" style="shape=partialRectangle;connectable=0;fillColor=none;top=0;left=0;bottom=0;right=0;editable=1;overflow=hidden;whiteSpace=wrap;html=1;" vertex="1" parent="cto1Rn3HJPF4hdV79vc3-8">
          <mxGeometry width="30" height="30" as="geometry">
            <mxRectangle width="30" height="30" as="alternateBounds" />
          </mxGeometry>
        </mxCell>
        <mxCell id="cto1Rn3HJPF4hdV79vc3-10" value="Title" style="shape=partialRectangle;connectable=0;fillColor=none;top=0;left=0;bottom=0;right=0;align=left;spacingLeft=6;overflow=hidden;whiteSpace=wrap;html=1;" vertex="1" parent="cto1Rn3HJPF4hdV79vc3-8">
          <mxGeometry x="30" width="150" height="30" as="geometry">
            <mxRectangle width="150" height="30" as="alternateBounds" />
          </mxGeometry>
        </mxCell>
        <mxCell id="cto1Rn3HJPF4hdV79vc3-11" value="" style="shape=tableRow;horizontal=0;startSize=0;swimlaneHead=0;swimlaneBody=0;fillColor=none;collapsible=0;dropTarget=0;points=[[0,0.5],[1,0.5]];portConstraint=eastwest;top=0;left=0;right=0;bottom=0;" vertex="1" parent="cto1Rn3HJPF4hdV79vc3-1">
          <mxGeometry y="120" width="180" height="30" as="geometry" />
        </mxCell>
        <mxCell id="cto1Rn3HJPF4hdV79vc3-12" value="" style="shape=partialRectangle;connectable=0;fillColor=none;top=0;left=0;bottom=0;right=0;editable=1;overflow=hidden;whiteSpace=wrap;html=1;" vertex="1" parent="cto1Rn3HJPF4hdV79vc3-11">
          <mxGeometry width="30" height="30" as="geometry">
            <mxRectangle width="30" height="30" as="alternateBounds" />
          </mxGeometry>
        </mxCell>
        <mxCell id="cto1Rn3HJPF4hdV79vc3-13" value="" style="shape=partialRectangle;connectable=0;fillColor=none;top=0;left=0;bottom=0;right=0;align=left;spacingLeft=6;overflow=hidden;whiteSpace=wrap;html=1;" vertex="1" parent="cto1Rn3HJPF4hdV79vc3-11">
          <mxGeometry x="30" width="150" height="30" as="geometry">
            <mxRectangle width="150" height="30" as="alternateBounds" />
          </mxGeometry>
        </mxCell>
        <mxCell id="cto1Rn3HJPF4hdV79vc3-14" value="SUBJECT" style="shape=table;startSize=30;container=1;collapsible=1;childLayout=tableLayout;fixedRows=1;rowLines=0;fontStyle=1;align=center;resizeLast=1;html=1;" vertex="1" parent="1">
          <mxGeometry x="20" y="890" width="180" height="180" as="geometry" />
        </mxCell>
        <mxCell id="cto1Rn3HJPF4hdV79vc3-15" value="" style="shape=tableRow;horizontal=0;startSize=0;swimlaneHead=0;swimlaneBody=0;fillColor=none;collapsible=0;dropTarget=0;points=[[0,0.5],[1,0.5]];portConstraint=eastwest;top=0;left=0;right=0;bottom=1;" vertex="1" parent="cto1Rn3HJPF4hdV79vc3-14">
          <mxGeometry y="30" width="180" height="30" as="geometry" />
        </mxCell>
        <mxCell id="cto1Rn3HJPF4hdV79vc3-16" value="PK" style="shape=partialRectangle;connectable=0;fillColor=none;top=0;left=0;bottom=0;right=0;fontStyle=1;overflow=hidden;whiteSpace=wrap;html=1;" vertex="1" parent="cto1Rn3HJPF4hdV79vc3-15">
          <mxGeometry width="30" height="30" as="geometry">
            <mxRectangle width="30" height="30" as="alternateBounds" />
          </mxGeometry>
        </mxCell>
        <mxCell id="cto1Rn3HJPF4hdV79vc3-17" value="SubjectID" style="shape=partialRectangle;connectable=0;fillColor=none;top=0;left=0;bottom=0;right=0;align=left;spacingLeft=6;fontStyle=5;overflow=hidden;whiteSpace=wrap;html=1;" vertex="1" parent="cto1Rn3HJPF4hdV79vc3-15">
          <mxGeometry x="30" width="150" height="30" as="geometry">
            <mxRectangle width="150" height="30" as="alternateBounds" />
          </mxGeometry>
        </mxCell>
        <mxCell id="cto1Rn3HJPF4hdV79vc3-18" value="" style="shape=tableRow;horizontal=0;startSize=0;swimlaneHead=0;swimlaneBody=0;fillColor=none;collapsible=0;dropTarget=0;points=[[0,0.5],[1,0.5]];portConstraint=eastwest;top=0;left=0;right=0;bottom=0;" vertex="1" parent="cto1Rn3HJPF4hdV79vc3-14">
          <mxGeometry y="60" width="180" height="30" as="geometry" />
        </mxCell>
        <mxCell id="cto1Rn3HJPF4hdV79vc3-19" value="" style="shape=partialRectangle;connectable=0;fillColor=none;top=0;left=0;bottom=0;right=0;editable=1;overflow=hidden;whiteSpace=wrap;html=1;" vertex="1" parent="cto1Rn3HJPF4hdV79vc3-18">
          <mxGeometry width="30" height="30" as="geometry">
            <mxRectangle width="30" height="30" as="alternateBounds" />
          </mxGeometry>
        </mxCell>
        <mxCell id="cto1Rn3HJPF4hdV79vc3-20" value="SubjectName" style="shape=partialRectangle;connectable=0;fillColor=none;top=0;left=0;bottom=0;right=0;align=left;spacingLeft=6;overflow=hidden;whiteSpace=wrap;html=1;" vertex="1" parent="cto1Rn3HJPF4hdV79vc3-18">
          <mxGeometry x="30" width="150" height="30" as="geometry">
            <mxRectangle width="150" height="30" as="alternateBounds" />
          </mxGeometry>
        </mxCell>
        <mxCell id="cto1Rn3HJPF4hdV79vc3-21" value="" style="shape=tableRow;horizontal=0;startSize=0;swimlaneHead=0;swimlaneBody=0;fillColor=none;collapsible=0;dropTarget=0;points=[[0,0.5],[1,0.5]];portConstraint=eastwest;top=0;left=0;right=0;bottom=0;" vertex="1" parent="cto1Rn3HJPF4hdV79vc3-14">
          <mxGeometry y="90" width="180" height="30" as="geometry" />
        </mxCell>
        <mxCell id="cto1Rn3HJPF4hdV79vc3-22" value="" style="shape=partialRectangle;connectable=0;fillColor=none;top=0;left=0;bottom=0;right=0;editable=1;overflow=hidden;whiteSpace=wrap;html=1;" vertex="1" parent="cto1Rn3HJPF4hdV79vc3-21">
          <mxGeometry width="30" height="30" as="geometry">
            <mxRectangle width="30" height="30" as="alternateBounds" />
          </mxGeometry>
        </mxCell>
        <mxCell id="cto1Rn3HJPF4hdV79vc3-23" value="Credits" style="shape=partialRectangle;connectable=0;fillColor=none;top=0;left=0;bottom=0;right=0;align=left;spacingLeft=6;overflow=hidden;whiteSpace=wrap;html=1;" vertex="1" parent="cto1Rn3HJPF4hdV79vc3-21">
          <mxGeometry x="30" width="150" height="30" as="geometry">
            <mxRectangle width="150" height="30" as="alternateBounds" />
          </mxGeometry>
        </mxCell>
        <mxCell id="cto1Rn3HJPF4hdV79vc3-24" value="" style="shape=tableRow;horizontal=0;startSize=0;swimlaneHead=0;swimlaneBody=0;fillColor=none;collapsible=0;dropTarget=0;points=[[0,0.5],[1,0.5]];portConstraint=eastwest;top=0;left=0;right=0;bottom=0;" vertex="1" parent="cto1Rn3HJPF4hdV79vc3-14">
          <mxGeometry y="120" width="180" height="30" as="geometry" />
        </mxCell>
        <mxCell id="cto1Rn3HJPF4hdV79vc3-25" value="" style="shape=partialRectangle;connectable=0;fillColor=none;top=0;left=0;bottom=0;right=0;editable=1;overflow=hidden;whiteSpace=wrap;html=1;" vertex="1" parent="cto1Rn3HJPF4hdV79vc3-24">
          <mxGeometry width="30" height="30" as="geometry">
            <mxRectangle width="30" height="30" as="alternateBounds" />
          </mxGeometry>
        </mxCell>
        <mxCell id="cto1Rn3HJPF4hdV79vc3-26" value="" style="shape=partialRectangle;connectable=0;fillColor=none;top=0;left=0;bottom=0;right=0;align=left;spacingLeft=6;overflow=hidden;whiteSpace=wrap;html=1;" vertex="1" parent="cto1Rn3HJPF4hdV79vc3-24">
          <mxGeometry x="30" width="150" height="30" as="geometry">
            <mxRectangle width="150" height="30" as="alternateBounds" />
          </mxGeometry>
        </mxCell>
        <mxCell id="cto1Rn3HJPF4hdV79vc3-28" value="COURSE" style="shape=table;startSize=30;container=1;collapsible=1;childLayout=tableLayout;fixedRows=1;rowLines=0;fontStyle=1;align=center;resizeLast=1;html=1;" vertex="1" parent="1">
          <mxGeometry x="320" y="450" width="180" height="360" as="geometry" />
        </mxCell>
        <mxCell id="cto1Rn3HJPF4hdV79vc3-29" value="" style="shape=tableRow;horizontal=0;startSize=0;swimlaneHead=0;swimlaneBody=0;fillColor=none;collapsible=0;dropTarget=0;points=[[0,0.5],[1,0.5]];portConstraint=eastwest;top=0;left=0;right=0;bottom=1;" vertex="1" parent="cto1Rn3HJPF4hdV79vc3-28">
          <mxGeometry y="30" width="180" height="30" as="geometry" />
        </mxCell>
        <mxCell id="cto1Rn3HJPF4hdV79vc3-30" value="PK" style="shape=partialRectangle;connectable=0;fillColor=none;top=0;left=0;bottom=0;right=0;fontStyle=1;overflow=hidden;whiteSpace=wrap;html=1;" vertex="1" parent="cto1Rn3HJPF4hdV79vc3-29">
          <mxGeometry width="30" height="30" as="geometry">
            <mxRectangle width="30" height="30" as="alternateBounds" />
          </mxGeometry>
        </mxCell>
        <mxCell id="cto1Rn3HJPF4hdV79vc3-31" value="CourseID" style="shape=partialRectangle;connectable=0;fillColor=none;top=0;left=0;bottom=0;right=0;align=left;spacingLeft=6;fontStyle=5;overflow=hidden;whiteSpace=wrap;html=1;" vertex="1" parent="cto1Rn3HJPF4hdV79vc3-29">
          <mxGeometry x="30" width="150" height="30" as="geometry">
            <mxRectangle width="150" height="30" as="alternateBounds" />
          </mxGeometry>
        </mxCell>
        <mxCell id="cto1Rn3HJPF4hdV79vc3-32" value="" style="shape=tableRow;horizontal=0;startSize=0;swimlaneHead=0;swimlaneBody=0;fillColor=none;collapsible=0;dropTarget=0;points=[[0,0.5],[1,0.5]];portConstraint=eastwest;top=0;left=0;right=0;bottom=0;" vertex="1" parent="cto1Rn3HJPF4hdV79vc3-28">
          <mxGeometry y="60" width="180" height="30" as="geometry" />
        </mxCell>
        <mxCell id="cto1Rn3HJPF4hdV79vc3-33" value="" style="shape=partialRectangle;connectable=0;fillColor=none;top=0;left=0;bottom=0;right=0;editable=1;overflow=hidden;whiteSpace=wrap;html=1;" vertex="1" parent="cto1Rn3HJPF4hdV79vc3-32">
          <mxGeometry width="30" height="30" as="geometry">
            <mxRectangle width="30" height="30" as="alternateBounds" />
          </mxGeometry>
        </mxCell>
        <mxCell id="cto1Rn3HJPF4hdV79vc3-34" value="LecturerID" style="shape=partialRectangle;connectable=0;fillColor=none;top=0;left=0;bottom=0;right=0;align=left;spacingLeft=6;overflow=hidden;whiteSpace=wrap;html=1;" vertex="1" parent="cto1Rn3HJPF4hdV79vc3-32">
          <mxGeometry x="30" width="150" height="30" as="geometry">
            <mxRectangle width="150" height="30" as="alternateBounds" />
          </mxGeometry>
        </mxCell>
        <mxCell id="cto1Rn3HJPF4hdV79vc3-35" value="" style="shape=tableRow;horizontal=0;startSize=0;swimlaneHead=0;swimlaneBody=0;fillColor=none;collapsible=0;dropTarget=0;points=[[0,0.5],[1,0.5]];portConstraint=eastwest;top=0;left=0;right=0;bottom=0;" vertex="1" parent="cto1Rn3HJPF4hdV79vc3-28">
          <mxGeometry y="90" width="180" height="30" as="geometry" />
        </mxCell>
        <mxCell id="cto1Rn3HJPF4hdV79vc3-36" value="" style="shape=partialRectangle;connectable=0;fillColor=none;top=0;left=0;bottom=0;right=0;editable=1;overflow=hidden;whiteSpace=wrap;html=1;" vertex="1" parent="cto1Rn3HJPF4hdV79vc3-35">
          <mxGeometry width="30" height="30" as="geometry">
            <mxRectangle width="30" height="30" as="alternateBounds" />
          </mxGeometry>
        </mxCell>
        <mxCell id="cto1Rn3HJPF4hdV79vc3-37" value="SubjectID" style="shape=partialRectangle;connectable=0;fillColor=none;top=0;left=0;bottom=0;right=0;align=left;spacingLeft=6;overflow=hidden;whiteSpace=wrap;html=1;" vertex="1" parent="cto1Rn3HJPF4hdV79vc3-35">
          <mxGeometry x="30" width="150" height="30" as="geometry">
            <mxRectangle width="150" height="30" as="alternateBounds" />
          </mxGeometry>
        </mxCell>
        <mxCell id="cto1Rn3HJPF4hdV79vc3-38" value="" style="shape=tableRow;horizontal=0;startSize=0;swimlaneHead=0;swimlaneBody=0;fillColor=none;collapsible=0;dropTarget=0;points=[[0,0.5],[1,0.5]];portConstraint=eastwest;top=0;left=0;right=0;bottom=0;" vertex="1" parent="cto1Rn3HJPF4hdV79vc3-28">
          <mxGeometry y="120" width="180" height="30" as="geometry" />
        </mxCell>
        <mxCell id="cto1Rn3HJPF4hdV79vc3-39" value="" style="shape=partialRectangle;connectable=0;fillColor=none;top=0;left=0;bottom=0;right=0;editable=1;overflow=hidden;whiteSpace=wrap;html=1;" vertex="1" parent="cto1Rn3HJPF4hdV79vc3-38">
          <mxGeometry width="30" height="30" as="geometry">
            <mxRectangle width="30" height="30" as="alternateBounds" />
          </mxGeometry>
        </mxCell>
        <mxCell id="cto1Rn3HJPF4hdV79vc3-40" value="" style="shape=partialRectangle;connectable=0;fillColor=none;top=0;left=0;bottom=0;right=0;align=left;spacingLeft=6;overflow=hidden;whiteSpace=wrap;html=1;" vertex="1" parent="cto1Rn3HJPF4hdV79vc3-38">
          <mxGeometry x="30" width="150" height="30" as="geometry">
            <mxRectangle width="150" height="30" as="alternateBounds" />
          </mxGeometry>
        </mxCell>
        <mxCell id="cto1Rn3HJPF4hdV79vc3-41" value="RoomID" style="shape=partialRectangle;connectable=0;fillColor=none;top=0;left=0;bottom=0;right=0;align=left;spacingLeft=6;overflow=hidden;whiteSpace=wrap;html=1;" vertex="1" parent="1">
          <mxGeometry x="350" y="570" width="150" height="30" as="geometry">
            <mxRectangle width="150" height="30" as="alternateBounds" />
          </mxGeometry>
        </mxCell>
        <mxCell id="cto1Rn3HJPF4hdV79vc3-58" value="ROOM" style="shape=table;startSize=30;container=1;collapsible=1;childLayout=tableLayout;fixedRows=1;rowLines=0;fontStyle=1;align=center;resizeLast=1;html=1;" vertex="1" parent="1">
          <mxGeometry x="630" y="40" width="180" height="200" as="geometry" />
        </mxCell>
        <mxCell id="cto1Rn3HJPF4hdV79vc3-59" value="" style="shape=tableRow;horizontal=0;startSize=0;swimlaneHead=0;swimlaneBody=0;fillColor=none;collapsible=0;dropTarget=0;points=[[0,0.5],[1,0.5]];portConstraint=eastwest;top=0;left=0;right=0;bottom=1;" vertex="1" parent="cto1Rn3HJPF4hdV79vc3-58">
          <mxGeometry y="30" width="180" height="30" as="geometry" />
        </mxCell>
        <mxCell id="cto1Rn3HJPF4hdV79vc3-60" value="PK" style="shape=partialRectangle;connectable=0;fillColor=none;top=0;left=0;bottom=0;right=0;fontStyle=1;overflow=hidden;whiteSpace=wrap;html=1;" vertex="1" parent="cto1Rn3HJPF4hdV79vc3-59">
          <mxGeometry width="30" height="30" as="geometry">
            <mxRectangle width="30" height="30" as="alternateBounds" />
          </mxGeometry>
        </mxCell>
        <mxCell id="cto1Rn3HJPF4hdV79vc3-61" value="RoomID" style="shape=partialRectangle;connectable=0;fillColor=none;top=0;left=0;bottom=0;right=0;align=left;spacingLeft=6;fontStyle=5;overflow=hidden;whiteSpace=wrap;html=1;" vertex="1" parent="cto1Rn3HJPF4hdV79vc3-59">
          <mxGeometry x="30" width="150" height="30" as="geometry">
            <mxRectangle width="150" height="30" as="alternateBounds" />
          </mxGeometry>
        </mxCell>
        <mxCell id="cto1Rn3HJPF4hdV79vc3-62" value="" style="shape=tableRow;horizontal=0;startSize=0;swimlaneHead=0;swimlaneBody=0;fillColor=none;collapsible=0;dropTarget=0;points=[[0,0.5],[1,0.5]];portConstraint=eastwest;top=0;left=0;right=0;bottom=0;" vertex="1" parent="cto1Rn3HJPF4hdV79vc3-58">
          <mxGeometry y="60" width="180" height="30" as="geometry" />
        </mxCell>
        <mxCell id="cto1Rn3HJPF4hdV79vc3-63" value="" style="shape=partialRectangle;connectable=0;fillColor=none;top=0;left=0;bottom=0;right=0;editable=1;overflow=hidden;whiteSpace=wrap;html=1;" vertex="1" parent="cto1Rn3HJPF4hdV79vc3-62">
          <mxGeometry width="30" height="30" as="geometry">
            <mxRectangle width="30" height="30" as="alternateBounds" />
          </mxGeometry>
        </mxCell>
        <mxCell id="cto1Rn3HJPF4hdV79vc3-64" value="RoomName" style="shape=partialRectangle;connectable=0;fillColor=none;top=0;left=0;bottom=0;right=0;align=left;spacingLeft=6;overflow=hidden;whiteSpace=wrap;html=1;" vertex="1" parent="cto1Rn3HJPF4hdV79vc3-62">
          <mxGeometry x="30" width="150" height="30" as="geometry">
            <mxRectangle width="150" height="30" as="alternateBounds" />
          </mxGeometry>
        </mxCell>
        <mxCell id="cto1Rn3HJPF4hdV79vc3-65" value="" style="shape=tableRow;horizontal=0;startSize=0;swimlaneHead=0;swimlaneBody=0;fillColor=none;collapsible=0;dropTarget=0;points=[[0,0.5],[1,0.5]];portConstraint=eastwest;top=0;left=0;right=0;bottom=0;" vertex="1" parent="cto1Rn3HJPF4hdV79vc3-58">
          <mxGeometry y="90" width="180" height="30" as="geometry" />
        </mxCell>
        <mxCell id="cto1Rn3HJPF4hdV79vc3-66" value="" style="shape=partialRectangle;connectable=0;fillColor=none;top=0;left=0;bottom=0;right=0;editable=1;overflow=hidden;whiteSpace=wrap;html=1;" vertex="1" parent="cto1Rn3HJPF4hdV79vc3-65">
          <mxGeometry width="30" height="30" as="geometry">
            <mxRectangle width="30" height="30" as="alternateBounds" />
          </mxGeometry>
        </mxCell>
        <mxCell id="cto1Rn3HJPF4hdV79vc3-67" value="Capacity" style="shape=partialRectangle;connectable=0;fillColor=none;top=0;left=0;bottom=0;right=0;align=left;spacingLeft=6;overflow=hidden;whiteSpace=wrap;html=1;" vertex="1" parent="cto1Rn3HJPF4hdV79vc3-65">
          <mxGeometry x="30" width="150" height="30" as="geometry">
            <mxRectangle width="150" height="30" as="alternateBounds" />
          </mxGeometry>
        </mxCell>
        <mxCell id="cto1Rn3HJPF4hdV79vc3-68" value="" style="shape=tableRow;horizontal=0;startSize=0;swimlaneHead=0;swimlaneBody=0;fillColor=none;collapsible=0;dropTarget=0;points=[[0,0.5],[1,0.5]];portConstraint=eastwest;top=0;left=0;right=0;bottom=0;" vertex="1" parent="cto1Rn3HJPF4hdV79vc3-58">
          <mxGeometry y="120" width="180" height="30" as="geometry" />
        </mxCell>
        <mxCell id="cto1Rn3HJPF4hdV79vc3-69" value="" style="shape=partialRectangle;connectable=0;fillColor=none;top=0;left=0;bottom=0;right=0;editable=1;overflow=hidden;whiteSpace=wrap;html=1;" vertex="1" parent="cto1Rn3HJPF4hdV79vc3-68">
          <mxGeometry width="30" height="30" as="geometry">
            <mxRectangle width="30" height="30" as="alternateBounds" />
          </mxGeometry>
        </mxCell>
        <mxCell id="cto1Rn3HJPF4hdV79vc3-70" value="" style="shape=partialRectangle;connectable=0;fillColor=none;top=0;left=0;bottom=0;right=0;align=left;spacingLeft=6;overflow=hidden;whiteSpace=wrap;html=1;" vertex="1" parent="cto1Rn3HJPF4hdV79vc3-68">
          <mxGeometry x="30" width="150" height="30" as="geometry">
            <mxRectangle width="150" height="30" as="alternateBounds" />
          </mxGeometry>
        </mxCell>
        <mxCell id="cto1Rn3HJPF4hdV79vc3-71" value="RoomType" style="shape=partialRectangle;connectable=0;fillColor=none;top=0;left=0;bottom=0;right=0;align=left;spacingLeft=6;overflow=hidden;whiteSpace=wrap;html=1;" vertex="1" parent="1">
          <mxGeometry x="660" y="160" width="150" height="30" as="geometry">
            <mxRectangle width="150" height="30" as="alternateBounds" />
          </mxGeometry>
        </mxCell>
        <mxCell id="cto1Rn3HJPF4hdV79vc3-73" value="REQUEST" style="shape=table;startSize=30;container=1;collapsible=1;childLayout=tableLayout;fixedRows=1;rowLines=0;fontStyle=1;align=center;resizeLast=1;html=1;" vertex="1" parent="1">
          <mxGeometry x="40" y="40" width="180" height="220" as="geometry" />
        </mxCell>
        <mxCell id="cto1Rn3HJPF4hdV79vc3-74" value="" style="shape=tableRow;horizontal=0;startSize=0;swimlaneHead=0;swimlaneBody=0;fillColor=none;collapsible=0;dropTarget=0;points=[[0,0.5],[1,0.5]];portConstraint=eastwest;top=0;left=0;right=0;bottom=1;" vertex="1" parent="cto1Rn3HJPF4hdV79vc3-73">
          <mxGeometry y="30" width="180" height="30" as="geometry" />
        </mxCell>
        <mxCell id="cto1Rn3HJPF4hdV79vc3-75" value="PK" style="shape=partialRectangle;connectable=0;fillColor=none;top=0;left=0;bottom=0;right=0;fontStyle=1;overflow=hidden;whiteSpace=wrap;html=1;" vertex="1" parent="cto1Rn3HJPF4hdV79vc3-74">
          <mxGeometry width="30" height="30" as="geometry">
            <mxRectangle width="30" height="30" as="alternateBounds" />
          </mxGeometry>
        </mxCell>
        <mxCell id="cto1Rn3HJPF4hdV79vc3-76" value="RequestID" style="shape=partialRectangle;connectable=0;fillColor=none;top=0;left=0;bottom=0;right=0;align=left;spacingLeft=6;fontStyle=5;overflow=hidden;whiteSpace=wrap;html=1;" vertex="1" parent="cto1Rn3HJPF4hdV79vc3-74">
          <mxGeometry x="30" width="150" height="30" as="geometry">
            <mxRectangle width="150" height="30" as="alternateBounds" />
          </mxGeometry>
        </mxCell>
        <mxCell id="cto1Rn3HJPF4hdV79vc3-77" value="" style="shape=tableRow;horizontal=0;startSize=0;swimlaneHead=0;swimlaneBody=0;fillColor=none;collapsible=0;dropTarget=0;points=[[0,0.5],[1,0.5]];portConstraint=eastwest;top=0;left=0;right=0;bottom=0;" vertex="1" parent="cto1Rn3HJPF4hdV79vc3-73">
          <mxGeometry y="60" width="180" height="30" as="geometry" />
        </mxCell>
        <mxCell id="cto1Rn3HJPF4hdV79vc3-78" value="" style="shape=partialRectangle;connectable=0;fillColor=none;top=0;left=0;bottom=0;right=0;editable=1;overflow=hidden;whiteSpace=wrap;html=1;" vertex="1" parent="cto1Rn3HJPF4hdV79vc3-77">
          <mxGeometry width="30" height="30" as="geometry">
            <mxRectangle width="30" height="30" as="alternateBounds" />
          </mxGeometry>
        </mxCell>
        <mxCell id="cto1Rn3HJPF4hdV79vc3-79" value="LectureID" style="shape=partialRectangle;connectable=0;fillColor=none;top=0;left=0;bottom=0;right=0;align=left;spacingLeft=6;overflow=hidden;whiteSpace=wrap;html=1;" vertex="1" parent="cto1Rn3HJPF4hdV79vc3-77">
          <mxGeometry x="30" width="150" height="30" as="geometry">
            <mxRectangle width="150" height="30" as="alternateBounds" />
          </mxGeometry>
        </mxCell>
        <mxCell id="cto1Rn3HJPF4hdV79vc3-80" value="" style="shape=tableRow;horizontal=0;startSize=0;swimlaneHead=0;swimlaneBody=0;fillColor=none;collapsible=0;dropTarget=0;points=[[0,0.5],[1,0.5]];portConstraint=eastwest;top=0;left=0;right=0;bottom=0;" vertex="1" parent="cto1Rn3HJPF4hdV79vc3-73">
          <mxGeometry y="90" width="180" height="30" as="geometry" />
        </mxCell>
        <mxCell id="cto1Rn3HJPF4hdV79vc3-81" value="" style="shape=partialRectangle;connectable=0;fillColor=none;top=0;left=0;bottom=0;right=0;editable=1;overflow=hidden;whiteSpace=wrap;html=1;" vertex="1" parent="cto1Rn3HJPF4hdV79vc3-80">
          <mxGeometry width="30" height="30" as="geometry">
            <mxRectangle width="30" height="30" as="alternateBounds" />
          </mxGeometry>
        </mxCell>
        <mxCell id="cto1Rn3HJPF4hdV79vc3-82" value="" style="shape=partialRectangle;connectable=0;fillColor=none;top=0;left=0;bottom=0;right=0;align=left;spacingLeft=6;overflow=hidden;whiteSpace=wrap;html=1;" vertex="1" parent="cto1Rn3HJPF4hdV79vc3-80">
          <mxGeometry x="30" width="150" height="30" as="geometry">
            <mxRectangle width="150" height="30" as="alternateBounds" />
          </mxGeometry>
        </mxCell>
        <mxCell id="cto1Rn3HJPF4hdV79vc3-83" value="" style="shape=tableRow;horizontal=0;startSize=0;swimlaneHead=0;swimlaneBody=0;fillColor=none;collapsible=0;dropTarget=0;points=[[0,0.5],[1,0.5]];portConstraint=eastwest;top=0;left=0;right=0;bottom=0;" vertex="1" parent="cto1Rn3HJPF4hdV79vc3-73">
          <mxGeometry y="120" width="180" height="30" as="geometry" />
        </mxCell>
        <mxCell id="cto1Rn3HJPF4hdV79vc3-84" value="" style="shape=partialRectangle;connectable=0;fillColor=none;top=0;left=0;bottom=0;right=0;editable=1;overflow=hidden;whiteSpace=wrap;html=1;" vertex="1" parent="cto1Rn3HJPF4hdV79vc3-83">
          <mxGeometry width="30" height="30" as="geometry">
            <mxRectangle width="30" height="30" as="alternateBounds" />
          </mxGeometry>
        </mxCell>
        <mxCell id="cto1Rn3HJPF4hdV79vc3-85" value="" style="shape=partialRectangle;connectable=0;fillColor=none;top=0;left=0;bottom=0;right=0;align=left;spacingLeft=6;overflow=hidden;whiteSpace=wrap;html=1;" vertex="1" parent="cto1Rn3HJPF4hdV79vc3-83">
          <mxGeometry x="30" width="150" height="30" as="geometry">
            <mxRectangle width="150" height="30" as="alternateBounds" />
          </mxGeometry>
        </mxCell>
        <mxCell id="cto1Rn3HJPF4hdV79vc3-101" value="FK1" style="shape=partialRectangle;connectable=0;fillColor=none;top=0;left=0;bottom=0;right=0;fontStyle=1;overflow=hidden;whiteSpace=wrap;html=1;" vertex="1" parent="1">
          <mxGeometry x="320" y="510" width="30" height="30" as="geometry">
            <mxRectangle width="30" height="30" as="alternateBounds" />
          </mxGeometry>
        </mxCell>
        <mxCell id="cto1Rn3HJPF4hdV79vc3-102" value="FK2" style="shape=partialRectangle;connectable=0;fillColor=none;top=0;left=0;bottom=0;right=0;fontStyle=1;overflow=hidden;whiteSpace=wrap;html=1;" vertex="1" parent="1">
          <mxGeometry x="320" y="540" width="30" height="30" as="geometry">
            <mxRectangle width="30" height="30" as="alternateBounds" />
          </mxGeometry>
        </mxCell>
        <mxCell id="cto1Rn3HJPF4hdV79vc3-103" value="FK3" style="shape=partialRectangle;connectable=0;fillColor=none;top=0;left=0;bottom=0;right=0;fontStyle=1;overflow=hidden;whiteSpace=wrap;html=1;" vertex="1" parent="1">
          <mxGeometry x="320" y="570" width="30" height="30" as="geometry">
            <mxRectangle width="30" height="30" as="alternateBounds" />
          </mxGeometry>
        </mxCell>
        <mxCell id="cto1Rn3HJPF4hdV79vc3-104" value="FK4" style="shape=partialRectangle;connectable=0;fillColor=none;top=0;left=0;bottom=0;right=0;fontStyle=1;overflow=hidden;whiteSpace=wrap;html=1;" vertex="1" parent="1">
          <mxGeometry x="320" y="600" width="30" height="30" as="geometry">
            <mxRectangle width="30" height="30" as="alternateBounds" />
          </mxGeometry>
        </mxCell>
        <mxCell id="cto1Rn3HJPF4hdV79vc3-105" value="ScheduleID" style="shape=partialRectangle;connectable=0;fillColor=none;top=0;left=0;bottom=0;right=0;align=left;spacingLeft=6;overflow=hidden;whiteSpace=wrap;html=1;" vertex="1" parent="1">
          <mxGeometry x="350" y="600" width="150" height="30" as="geometry">
            <mxRectangle width="150" height="30" as="alternateBounds" />
          </mxGeometry>
        </mxCell>
        <mxCell id="cto1Rn3HJPF4hdV79vc3-107" value="Periods" style="shape=partialRectangle;connectable=0;fillColor=none;top=0;left=0;bottom=0;right=0;align=left;spacingLeft=6;overflow=hidden;whiteSpace=wrap;html=1;" vertex="1" parent="1">
          <mxGeometry x="350" y="630" width="150" height="30" as="geometry">
            <mxRectangle width="150" height="30" as="alternateBounds" />
          </mxGeometry>
        </mxCell>
        <mxCell id="cto1Rn3HJPF4hdV79vc3-108" value="ClassName" style="shape=partialRectangle;connectable=0;fillColor=none;top=0;left=0;bottom=0;right=0;align=left;spacingLeft=6;overflow=hidden;whiteSpace=wrap;html=1;" vertex="1" parent="1">
          <mxGeometry x="350" y="660" width="150" height="30" as="geometry">
            <mxRectangle width="150" height="30" as="alternateBounds" />
          </mxGeometry>
        </mxCell>
        <mxCell id="cto1Rn3HJPF4hdV79vc3-109" value="Cohort" style="shape=partialRectangle;connectable=0;fillColor=none;top=0;left=0;bottom=0;right=0;align=left;spacingLeft=6;overflow=hidden;whiteSpace=wrap;html=1;" vertex="1" parent="1">
          <mxGeometry x="350" y="690" width="150" height="30" as="geometry">
            <mxRectangle width="150" height="30" as="alternateBounds" />
          </mxGeometry>
        </mxCell>
        <mxCell id="cto1Rn3HJPF4hdV79vc3-110" value="FK1" style="shape=partialRectangle;connectable=0;fillColor=none;top=0;left=0;bottom=0;right=0;fontStyle=1;overflow=hidden;whiteSpace=wrap;html=1;" vertex="1" parent="1">
          <mxGeometry x="40" y="100" width="30" height="30" as="geometry">
            <mxRectangle width="30" height="30" as="alternateBounds" />
          </mxGeometry>
        </mxCell>
        <mxCell id="cto1Rn3HJPF4hdV79vc3-111" value="Content" style="shape=partialRectangle;connectable=0;fillColor=none;top=0;left=0;bottom=0;right=0;align=left;spacingLeft=6;overflow=hidden;whiteSpace=wrap;html=1;" vertex="1" parent="1">
          <mxGeometry x="70" y="130" width="150" height="30" as="geometry">
            <mxRectangle width="150" height="30" as="alternateBounds" />
          </mxGeometry>
        </mxCell>
        <mxCell id="cto1Rn3HJPF4hdV79vc3-112" value="SCHEDULE" style="shape=table;startSize=30;container=1;collapsible=1;childLayout=tableLayout;fixedRows=1;rowLines=0;fontStyle=1;align=center;resizeLast=1;html=1;" vertex="1" parent="1">
          <mxGeometry x="630" y="890" width="180" height="180" as="geometry" />
        </mxCell>
        <mxCell id="cto1Rn3HJPF4hdV79vc3-113" value="" style="shape=tableRow;horizontal=0;startSize=0;swimlaneHead=0;swimlaneBody=0;fillColor=none;collapsible=0;dropTarget=0;points=[[0,0.5],[1,0.5]];portConstraint=eastwest;top=0;left=0;right=0;bottom=1;" vertex="1" parent="cto1Rn3HJPF4hdV79vc3-112">
          <mxGeometry y="30" width="180" height="30" as="geometry" />
        </mxCell>
        <mxCell id="cto1Rn3HJPF4hdV79vc3-114" value="PK" style="shape=partialRectangle;connectable=0;fillColor=none;top=0;left=0;bottom=0;right=0;fontStyle=1;overflow=hidden;whiteSpace=wrap;html=1;" vertex="1" parent="cto1Rn3HJPF4hdV79vc3-113">
          <mxGeometry width="30" height="30" as="geometry">
            <mxRectangle width="30" height="30" as="alternateBounds" />
          </mxGeometry>
        </mxCell>
        <mxCell id="cto1Rn3HJPF4hdV79vc3-115" value="ScheduleID" style="shape=partialRectangle;connectable=0;fillColor=none;top=0;left=0;bottom=0;right=0;align=left;spacingLeft=6;fontStyle=5;overflow=hidden;whiteSpace=wrap;html=1;" vertex="1" parent="cto1Rn3HJPF4hdV79vc3-113">
          <mxGeometry x="30" width="150" height="30" as="geometry">
            <mxRectangle width="150" height="30" as="alternateBounds" />
          </mxGeometry>
        </mxCell>
        <mxCell id="cto1Rn3HJPF4hdV79vc3-116" value="" style="shape=tableRow;horizontal=0;startSize=0;swimlaneHead=0;swimlaneBody=0;fillColor=none;collapsible=0;dropTarget=0;points=[[0,0.5],[1,0.5]];portConstraint=eastwest;top=0;left=0;right=0;bottom=0;" vertex="1" parent="cto1Rn3HJPF4hdV79vc3-112">
          <mxGeometry y="60" width="180" height="30" as="geometry" />
        </mxCell>
        <mxCell id="cto1Rn3HJPF4hdV79vc3-117" value="" style="shape=partialRectangle;connectable=0;fillColor=none;top=0;left=0;bottom=0;right=0;editable=1;overflow=hidden;whiteSpace=wrap;html=1;" vertex="1" parent="cto1Rn3HJPF4hdV79vc3-116">
          <mxGeometry width="30" height="30" as="geometry">
            <mxRectangle width="30" height="30" as="alternateBounds" />
          </mxGeometry>
        </mxCell>
        <mxCell id="cto1Rn3HJPF4hdV79vc3-118" value="Semeter" style="shape=partialRectangle;connectable=0;fillColor=none;top=0;left=0;bottom=0;right=0;align=left;spacingLeft=6;overflow=hidden;whiteSpace=wrap;html=1;" vertex="1" parent="cto1Rn3HJPF4hdV79vc3-116">
          <mxGeometry x="30" width="150" height="30" as="geometry">
            <mxRectangle width="150" height="30" as="alternateBounds" />
          </mxGeometry>
        </mxCell>
        <mxCell id="cto1Rn3HJPF4hdV79vc3-119" value="" style="shape=tableRow;horizontal=0;startSize=0;swimlaneHead=0;swimlaneBody=0;fillColor=none;collapsible=0;dropTarget=0;points=[[0,0.5],[1,0.5]];portConstraint=eastwest;top=0;left=0;right=0;bottom=0;" vertex="1" parent="cto1Rn3HJPF4hdV79vc3-112">
          <mxGeometry y="90" width="180" height="30" as="geometry" />
        </mxCell>
        <mxCell id="cto1Rn3HJPF4hdV79vc3-120" value="" style="shape=partialRectangle;connectable=0;fillColor=none;top=0;left=0;bottom=0;right=0;editable=1;overflow=hidden;whiteSpace=wrap;html=1;" vertex="1" parent="cto1Rn3HJPF4hdV79vc3-119">
          <mxGeometry width="30" height="30" as="geometry">
            <mxRectangle width="30" height="30" as="alternateBounds" />
          </mxGeometry>
        </mxCell>
        <mxCell id="cto1Rn3HJPF4hdV79vc3-121" value="" style="shape=partialRectangle;connectable=0;fillColor=none;top=0;left=0;bottom=0;right=0;align=left;spacingLeft=6;overflow=hidden;whiteSpace=wrap;html=1;" vertex="1" parent="cto1Rn3HJPF4hdV79vc3-119">
          <mxGeometry x="30" width="150" height="30" as="geometry">
            <mxRectangle width="150" height="30" as="alternateBounds" />
          </mxGeometry>
        </mxCell>
        <mxCell id="cto1Rn3HJPF4hdV79vc3-122" value="" style="shape=tableRow;horizontal=0;startSize=0;swimlaneHead=0;swimlaneBody=0;fillColor=none;collapsible=0;dropTarget=0;points=[[0,0.5],[1,0.5]];portConstraint=eastwest;top=0;left=0;right=0;bottom=0;" vertex="1" parent="cto1Rn3HJPF4hdV79vc3-112">
          <mxGeometry y="120" width="180" height="30" as="geometry" />
        </mxCell>
        <mxCell id="cto1Rn3HJPF4hdV79vc3-123" value="" style="shape=partialRectangle;connectable=0;fillColor=none;top=0;left=0;bottom=0;right=0;editable=1;overflow=hidden;whiteSpace=wrap;html=1;" vertex="1" parent="cto1Rn3HJPF4hdV79vc3-122">
          <mxGeometry width="30" height="30" as="geometry">
            <mxRectangle width="30" height="30" as="alternateBounds" />
          </mxGeometry>
        </mxCell>
        <mxCell id="cto1Rn3HJPF4hdV79vc3-124" value="" style="shape=partialRectangle;connectable=0;fillColor=none;top=0;left=0;bottom=0;right=0;align=left;spacingLeft=6;overflow=hidden;whiteSpace=wrap;html=1;" vertex="1" parent="cto1Rn3HJPF4hdV79vc3-122">
          <mxGeometry x="30" width="150" height="30" as="geometry">
            <mxRectangle width="150" height="30" as="alternateBounds" />
          </mxGeometry>
        </mxCell>
        <mxCell id="cto1Rn3HJPF4hdV79vc3-130" value="ClassSize" style="shape=partialRectangle;connectable=0;fillColor=none;top=0;left=0;bottom=0;right=0;align=left;spacingLeft=6;overflow=hidden;whiteSpace=wrap;html=1;" vertex="1" parent="1">
          <mxGeometry x="350" y="720" width="150" height="30" as="geometry">
            <mxRectangle width="150" height="30" as="alternateBounds" />
          </mxGeometry>
        </mxCell>
        <mxCell id="cto1Rn3HJPF4hdV79vc3-131" value="" style="endArrow=none;html=1;rounded=0;exitX=1;exitY=0.5;exitDx=0;exitDy=0;" edge="1" parent="1" source="cto1Rn3HJPF4hdV79vc3-2">
          <mxGeometry width="50" height="50" relative="1" as="geometry">
            <mxPoint x="200" y="760" as="sourcePoint" />
            <mxPoint x="320" y="520" as="targetPoint" />
            <Array as="points">
              <mxPoint x="270" y="395" />
              <mxPoint x="270" y="520" />
            </Array>
          </mxGeometry>
        </mxCell>
        <mxCell id="cto1Rn3HJPF4hdV79vc3-132" value="teaches" style="rhombus;whiteSpace=wrap;html=1;" vertex="1" parent="1">
          <mxGeometry x="230" y="420" width="80" height="80" as="geometry" />
        </mxCell>
        <mxCell id="cto1Rn3HJPF4hdV79vc3-133" value="1" style="text;html=1;align=center;verticalAlign=middle;whiteSpace=wrap;rounded=0;" vertex="1" parent="1">
          <mxGeometry x="250" y="400" width="60" height="30" as="geometry" />
        </mxCell>
        <mxCell id="cto1Rn3HJPF4hdV79vc3-134" value="N" style="text;html=1;align=center;verticalAlign=middle;whiteSpace=wrap;rounded=0;" vertex="1" parent="1">
          <mxGeometry x="250" y="490" width="60" height="30" as="geometry" />
        </mxCell>
        <mxCell id="cto1Rn3HJPF4hdV79vc3-137" value="" style="endArrow=none;html=1;rounded=0;exitX=1;exitY=0.5;exitDx=0;exitDy=0;" edge="1" parent="1" source="cto1Rn3HJPF4hdV79vc3-15">
          <mxGeometry width="50" height="50" relative="1" as="geometry">
            <mxPoint x="250" y="750" as="sourcePoint" />
            <mxPoint x="320" y="550" as="targetPoint" />
            <Array as="points">
              <mxPoint x="280" y="935" />
              <mxPoint x="280" y="550" />
            </Array>
          </mxGeometry>
        </mxCell>
        <mxCell id="cto1Rn3HJPF4hdV79vc3-138" value="has" style="rhombus;whiteSpace=wrap;html=1;" vertex="1" parent="1">
          <mxGeometry x="240" y="800" width="80" height="80" as="geometry" />
        </mxCell>
        <mxCell id="cto1Rn3HJPF4hdV79vc3-139" value="1" style="text;html=1;align=center;verticalAlign=middle;whiteSpace=wrap;rounded=0;" vertex="1" parent="1">
          <mxGeometry x="240" y="870" width="60" height="30" as="geometry" />
        </mxCell>
        <mxCell id="cto1Rn3HJPF4hdV79vc3-140" value="N" style="text;html=1;align=center;verticalAlign=middle;whiteSpace=wrap;rounded=0;" vertex="1" parent="1">
          <mxGeometry x="240" y="780" width="60" height="30" as="geometry" />
        </mxCell>
        <mxCell id="cto1Rn3HJPF4hdV79vc3-141" value="" style="endArrow=none;html=1;rounded=0;entryX=0;entryY=0.5;entryDx=0;entryDy=0;" edge="1" parent="1" target="cto1Rn3HJPF4hdV79vc3-59">
          <mxGeometry width="50" height="50" relative="1" as="geometry">
            <mxPoint x="500" y="590" as="sourcePoint" />
            <mxPoint x="150" y="320" as="targetPoint" />
            <Array as="points">
              <mxPoint x="560" y="590" />
              <mxPoint x="560" y="85" />
            </Array>
          </mxGeometry>
        </mxCell>
        <mxCell id="cto1Rn3HJPF4hdV79vc3-142" value="takes place" style="rhombus;whiteSpace=wrap;html=1;" vertex="1" parent="1">
          <mxGeometry x="520" y="310" width="80" height="80" as="geometry" />
        </mxCell>
        <mxCell id="cto1Rn3HJPF4hdV79vc3-143" value="1" style="text;html=1;align=center;verticalAlign=middle;whiteSpace=wrap;rounded=0;" vertex="1" parent="1">
          <mxGeometry x="540" y="290" width="60" height="30" as="geometry" />
        </mxCell>
        <mxCell id="cto1Rn3HJPF4hdV79vc3-144" value="N" style="text;html=1;align=center;verticalAlign=middle;whiteSpace=wrap;rounded=0;" vertex="1" parent="1">
          <mxGeometry x="540" y="390" width="60" height="30" as="geometry" />
        </mxCell>
        <mxCell id="cto1Rn3HJPF4hdV79vc3-146" value="" style="endArrow=none;html=1;rounded=0;entryX=0;entryY=0.5;entryDx=0;entryDy=0;" edge="1" parent="1" target="cto1Rn3HJPF4hdV79vc3-113">
          <mxGeometry width="50" height="50" relative="1" as="geometry">
            <mxPoint x="500" y="610" as="sourcePoint" />
            <mxPoint x="580" y="1020" as="targetPoint" />
            <Array as="points">
              <mxPoint x="590" y="610" />
              <mxPoint x="590" y="715" />
              <mxPoint x="590" y="935" />
            </Array>
          </mxGeometry>
        </mxCell>
        <mxCell id="cto1Rn3HJPF4hdV79vc3-148" value="has" style="rhombus;whiteSpace=wrap;html=1;" vertex="1" parent="1">
          <mxGeometry x="550" y="760" width="80" height="80" as="geometry" />
        </mxCell>
        <mxCell id="cto1Rn3HJPF4hdV79vc3-150" value="1" style="text;html=1;align=center;verticalAlign=middle;whiteSpace=wrap;rounded=0;" vertex="1" parent="1">
          <mxGeometry x="570" y="830" width="60" height="30" as="geometry" />
        </mxCell>
        <mxCell id="cto1Rn3HJPF4hdV79vc3-151" value="N" style="text;html=1;align=center;verticalAlign=middle;whiteSpace=wrap;rounded=0;" vertex="1" parent="1">
          <mxGeometry x="570" y="740" width="60" height="30" as="geometry" />
        </mxCell>
        <mxCell id="cto1Rn3HJPF4hdV79vc3-164" value="" style="endArrow=none;html=1;rounded=0;exitX=1;exitY=0.231;exitDx=0;exitDy=0;exitPerimeter=0;entryX=1;entryY=0.5;entryDx=0;entryDy=0;" edge="1" parent="1" source="cto1Rn3HJPF4hdV79vc3-2" target="cto1Rn3HJPF4hdV79vc3-77">
          <mxGeometry width="50" height="50" relative="1" as="geometry">
            <mxPoint x="490" y="370" as="sourcePoint" />
            <mxPoint x="540" y="320" as="targetPoint" />
            <Array as="points">
              <mxPoint x="320" y="387" />
              <mxPoint x="320" y="115" />
            </Array>
          </mxGeometry>
        </mxCell>
        <mxCell id="cto1Rn3HJPF4hdV79vc3-165" value="makes" style="rhombus;whiteSpace=wrap;html=1;" vertex="1" parent="1">
          <mxGeometry x="280" y="175" width="80" height="80" as="geometry" />
        </mxCell>
        <mxCell id="cto1Rn3HJPF4hdV79vc3-166" value="1" style="text;html=1;align=center;verticalAlign=middle;whiteSpace=wrap;rounded=0;" vertex="1" parent="1">
          <mxGeometry x="300" y="250" width="60" height="30" as="geometry" />
        </mxCell>
        <mxCell id="cto1Rn3HJPF4hdV79vc3-167" value="N" style="text;html=1;align=center;verticalAlign=middle;whiteSpace=wrap;rounded=0;" vertex="1" parent="1">
          <mxGeometry x="300" y="150" width="60" height="30" as="geometry" />
        </mxCell>
        <mxCell id="cto1Rn3HJPF4hdV79vc3-168" value="ClassType" style="shape=partialRectangle;connectable=0;fillColor=none;top=0;left=0;bottom=0;right=0;align=left;spacingLeft=6;overflow=hidden;whiteSpace=wrap;html=1;" vertex="1" parent="1">
          <mxGeometry x="350" y="750" width="150" height="30" as="geometry">
            <mxRectangle width="150" height="30" as="alternateBounds" />
          </mxGeometry>
        </mxCell>
        <mxCell id="A0Q72YRL7aFaCpaF5peR-1" value="Status" style="shape=partialRectangle;connectable=0;fillColor=none;top=0;left=0;bottom=0;right=0;align=left;spacingLeft=6;overflow=hidden;whiteSpace=wrap;html=1;" vertex="1" parent="1">
          <mxGeometry x="70" y="160" width="150" height="30" as="geometry">
            <mxRectangle width="150" height="30" as="alternateBounds" />
          </mxGeometry>
        </mxCell>
        <mxCell id="A0Q72YRL7aFaCpaF5peR-2" value="Time" style="shape=partialRectangle;connectable=0;fillColor=none;top=0;left=0;bottom=0;right=0;align=left;spacingLeft=6;overflow=hidden;whiteSpace=wrap;html=1;" vertex="1" parent="1">
          <mxGeometry x="70" y="190" width="150" height="30" as="geometry">
            <mxRectangle width="150" height="30" as="alternateBounds" />
          </mxGeometry>
        </mxCell>
        <mxCell id="A0Q72YRL7aFaCpaF5peR-3" value="Date" style="shape=partialRectangle;connectable=0;fillColor=none;top=0;left=0;bottom=0;right=0;align=left;spacingLeft=6;overflow=hidden;whiteSpace=wrap;html=1;" vertex="1" parent="1">
          <mxGeometry x="70" y="220" width="150" height="30" as="geometry">
            <mxRectangle width="150" height="30" as="alternateBounds" />
          </mxGeometry>
        </mxCell>
        <mxCell id="A0Q72YRL7aFaCpaF5peR-4" value="Email" style="shape=partialRectangle;connectable=0;fillColor=none;top=0;left=0;bottom=0;right=0;align=left;spacingLeft=6;overflow=hidden;whiteSpace=wrap;html=1;" vertex="1" parent="1">
          <mxGeometry x="70" y="471" width="150" height="30" as="geometry">
            <mxRectangle width="150" height="30" as="alternateBounds" />
          </mxGeometry>
        </mxCell>
        <mxCell id="A0Q72YRL7aFaCpaF5peR-5" value="Password" style="shape=partialRectangle;connectable=0;fillColor=none;top=0;left=0;bottom=0;right=0;align=left;spacingLeft=6;overflow=hidden;whiteSpace=wrap;html=1;" vertex="1" parent="1">
          <mxGeometry x="70" y="501" width="150" height="30" as="geometry">
            <mxRectangle width="150" height="30" as="alternateBounds" />
          </mxGeometry>
        </mxCell>
        <mxCell id="A0Q72YRL7aFaCpaF5peR-6" value="Location" style="shape=partialRectangle;connectable=0;fillColor=none;top=0;left=0;bottom=0;right=0;align=left;spacingLeft=6;overflow=hidden;whiteSpace=wrap;html=1;" vertex="1" parent="1">
          <mxGeometry x="660" y="190" width="150" height="30" as="geometry">
            <mxRectangle width="150" height="30" as="alternateBounds" />
          </mxGeometry>
        </mxCell>
        <mxCell id="A0Q72YRL7aFaCpaF5peR-7" value="Year" style="shape=partialRectangle;connectable=0;fillColor=none;top=0;left=0;bottom=0;right=0;align=left;spacingLeft=6;overflow=hidden;whiteSpace=wrap;html=1;" vertex="1" parent="1">
          <mxGeometry x="660" y="980" width="150" height="30" as="geometry">
            <mxRectangle width="150" height="30" as="alternateBounds" />
          </mxGeometry>
        </mxCell>
        <mxCell id="A0Q72YRL7aFaCpaF5peR-8" value="REQUEST" style="rounded=0;whiteSpace=wrap;html=1;" vertex="1" parent="1">
          <mxGeometry x="1220" y="240" width="120" height="60" as="geometry" />
        </mxCell>
        <mxCell id="A0Q72YRL7aFaCpaF5peR-9" value="ROOM" style="rounded=0;whiteSpace=wrap;html=1;" vertex="1" parent="1">
          <mxGeometry x="1680" y="240" width="120" height="60" as="geometry" />
        </mxCell>
        <mxCell id="A0Q72YRL7aFaCpaF5peR-10" value="LECTURER" style="rounded=0;whiteSpace=wrap;html=1;" vertex="1" parent="1">
          <mxGeometry x="1220" y="670" width="120" height="60" as="geometry" />
        </mxCell>
        <mxCell id="A0Q72YRL7aFaCpaF5peR-11" value="COURSE" style="rounded=0;whiteSpace=wrap;html=1;" vertex="1" parent="1">
          <mxGeometry x="1680" y="669.5" width="120" height="60" as="geometry" />
        </mxCell>
        <mxCell id="A0Q72YRL7aFaCpaF5peR-12" value="SUBJECT" style="rounded=0;whiteSpace=wrap;html=1;" vertex="1" parent="1">
          <mxGeometry x="1679" y="1060" width="120" height="60" as="geometry" />
        </mxCell>
        <mxCell id="A0Q72YRL7aFaCpaF5peR-13" value="SCHEDULE" style="rounded=0;whiteSpace=wrap;html=1;" vertex="1" parent="1">
          <mxGeometry x="2160" y="670" width="120" height="60" as="geometry" />
        </mxCell>
        <mxCell id="A0Q72YRL7aFaCpaF5peR-14" value="&lt;u&gt;RequestID&lt;/u&gt;" style="ellipse;whiteSpace=wrap;html=1;" vertex="1" parent="1">
          <mxGeometry x="1080" y="155" width="70" height="50" as="geometry" />
        </mxCell>
        <mxCell id="r3QJC4EsxG-5MnpAkBXW-1" value="Content" style="ellipse;whiteSpace=wrap;html=1;" vertex="1" parent="1">
          <mxGeometry x="1150" y="120" width="70" height="50" as="geometry" />
        </mxCell>
        <mxCell id="r3QJC4EsxG-5MnpAkBXW-2" value="Status" style="ellipse;whiteSpace=wrap;html=1;" vertex="1" parent="1">
          <mxGeometry x="1245" y="105" width="70" height="50" as="geometry" />
        </mxCell>
        <mxCell id="r3QJC4EsxG-5MnpAkBXW-3" value="Time" style="ellipse;whiteSpace=wrap;html=1;" vertex="1" parent="1">
          <mxGeometry x="1340" y="120" width="70" height="50" as="geometry" />
        </mxCell>
        <mxCell id="r3QJC4EsxG-5MnpAkBXW-4" value="Date" style="ellipse;whiteSpace=wrap;html=1;" vertex="1" parent="1">
          <mxGeometry x="1410" y="155" width="70" height="50" as="geometry" />
        </mxCell>
        <mxCell id="r3QJC4EsxG-5MnpAkBXW-5" value="" style="endArrow=none;html=1;rounded=0;entryX=0.5;entryY=1;entryDx=0;entryDy=0;exitX=0.5;exitY=0;exitDx=0;exitDy=0;" edge="1" parent="1" source="A0Q72YRL7aFaCpaF5peR-8" target="A0Q72YRL7aFaCpaF5peR-14">
          <mxGeometry width="50" height="50" relative="1" as="geometry">
            <mxPoint x="1330" y="260" as="sourcePoint" />
            <mxPoint x="1380" y="210" as="targetPoint" />
          </mxGeometry>
        </mxCell>
        <mxCell id="r3QJC4EsxG-5MnpAkBXW-6" value="" style="endArrow=none;html=1;rounded=0;entryX=0.5;entryY=1;entryDx=0;entryDy=0;exitX=0.5;exitY=0;exitDx=0;exitDy=0;" edge="1" parent="1" source="A0Q72YRL7aFaCpaF5peR-8" target="r3QJC4EsxG-5MnpAkBXW-1">
          <mxGeometry width="50" height="50" relative="1" as="geometry">
            <mxPoint x="1290" y="250" as="sourcePoint" />
            <mxPoint x="1125" y="215" as="targetPoint" />
          </mxGeometry>
        </mxCell>
        <mxCell id="r3QJC4EsxG-5MnpAkBXW-7" value="" style="endArrow=none;html=1;rounded=0;entryX=0.5;entryY=1;entryDx=0;entryDy=0;exitX=0.5;exitY=0;exitDx=0;exitDy=0;" edge="1" parent="1" source="A0Q72YRL7aFaCpaF5peR-8" target="r3QJC4EsxG-5MnpAkBXW-2">
          <mxGeometry width="50" height="50" relative="1" as="geometry">
            <mxPoint x="1290" y="250" as="sourcePoint" />
            <mxPoint x="1195" y="180" as="targetPoint" />
          </mxGeometry>
        </mxCell>
        <mxCell id="r3QJC4EsxG-5MnpAkBXW-8" value="" style="endArrow=none;html=1;rounded=0;entryX=0.5;entryY=1;entryDx=0;entryDy=0;exitX=0.5;exitY=0;exitDx=0;exitDy=0;" edge="1" parent="1" source="A0Q72YRL7aFaCpaF5peR-8" target="r3QJC4EsxG-5MnpAkBXW-3">
          <mxGeometry width="50" height="50" relative="1" as="geometry">
            <mxPoint x="1290" y="250" as="sourcePoint" />
            <mxPoint x="1290" y="165" as="targetPoint" />
          </mxGeometry>
        </mxCell>
        <mxCell id="r3QJC4EsxG-5MnpAkBXW-9" value="" style="endArrow=none;html=1;rounded=0;entryX=0.5;entryY=1;entryDx=0;entryDy=0;exitX=0.5;exitY=0;exitDx=0;exitDy=0;" edge="1" parent="1" source="A0Q72YRL7aFaCpaF5peR-8" target="r3QJC4EsxG-5MnpAkBXW-4">
          <mxGeometry width="50" height="50" relative="1" as="geometry">
            <mxPoint x="1290" y="250" as="sourcePoint" />
            <mxPoint x="1385" y="180" as="targetPoint" />
          </mxGeometry>
        </mxCell>
        <mxCell id="r3QJC4EsxG-5MnpAkBXW-11" value="LecturerName" style="ellipse;whiteSpace=wrap;html=1;" vertex="1" parent="1">
          <mxGeometry x="1160" y="820" width="70" height="50" as="geometry" />
        </mxCell>
        <mxCell id="r3QJC4EsxG-5MnpAkBXW-12" value="Title" style="ellipse;whiteSpace=wrap;html=1;" vertex="1" parent="1">
          <mxGeometry x="1245" y="810" width="70" height="50" as="geometry" />
        </mxCell>
        <mxCell id="r3QJC4EsxG-5MnpAkBXW-13" value="Email" style="ellipse;whiteSpace=wrap;html=1;" vertex="1" parent="1">
          <mxGeometry x="1330" y="820" width="70" height="50" as="geometry" />
        </mxCell>
        <mxCell id="r3QJC4EsxG-5MnpAkBXW-14" value="Password" style="ellipse;whiteSpace=wrap;html=1;" vertex="1" parent="1">
          <mxGeometry x="1390" y="770" width="70" height="50" as="geometry" />
        </mxCell>
        <mxCell id="r3QJC4EsxG-5MnpAkBXW-15" value="" style="endArrow=none;html=1;rounded=0;entryX=0.5;entryY=0;entryDx=0;entryDy=0;exitX=0.5;exitY=1;exitDx=0;exitDy=0;" edge="1" parent="1" source="A0Q72YRL7aFaCpaF5peR-10" target="r3QJC4EsxG-5MnpAkBXW-12">
          <mxGeometry width="50" height="50" relative="1" as="geometry">
            <mxPoint x="1280" y="730" as="sourcePoint" />
            <mxPoint x="1240" y="570" as="targetPoint" />
          </mxGeometry>
        </mxCell>
        <mxCell id="r3QJC4EsxG-5MnpAkBXW-17" value="" style="endArrow=none;html=1;rounded=0;exitX=0.5;exitY=1;exitDx=0;exitDy=0;entryX=0.5;entryY=0;entryDx=0;entryDy=0;" edge="1" parent="1" source="A0Q72YRL7aFaCpaF5peR-10" target="r3QJC4EsxG-5MnpAkBXW-11">
          <mxGeometry width="50" height="50" relative="1" as="geometry">
            <mxPoint x="1290" y="675" as="sourcePoint" />
            <mxPoint x="1290" y="590" as="targetPoint" />
          </mxGeometry>
        </mxCell>
        <mxCell id="r3QJC4EsxG-5MnpAkBXW-19" value="" style="endArrow=none;html=1;rounded=0;exitX=0.5;exitY=1;exitDx=0;exitDy=0;entryX=0.5;entryY=0;entryDx=0;entryDy=0;" edge="1" parent="1" source="A0Q72YRL7aFaCpaF5peR-10" target="r3QJC4EsxG-5MnpAkBXW-13">
          <mxGeometry width="50" height="50" relative="1" as="geometry">
            <mxPoint x="1290" y="675" as="sourcePoint" />
            <mxPoint x="1290" y="590" as="targetPoint" />
          </mxGeometry>
        </mxCell>
        <mxCell id="r3QJC4EsxG-5MnpAkBXW-20" value="" style="endArrow=none;html=1;rounded=0;exitX=0.5;exitY=1;exitDx=0;exitDy=0;entryX=0.5;entryY=0;entryDx=0;entryDy=0;" edge="1" parent="1" source="A0Q72YRL7aFaCpaF5peR-10" target="r3QJC4EsxG-5MnpAkBXW-14">
          <mxGeometry width="50" height="50" relative="1" as="geometry">
            <mxPoint x="1290" y="675" as="sourcePoint" />
            <mxPoint x="1375" y="600" as="targetPoint" />
          </mxGeometry>
        </mxCell>
        <mxCell id="r3QJC4EsxG-5MnpAkBXW-21" value="&lt;u&gt;LecturerID&lt;/u&gt;" style="ellipse;whiteSpace=wrap;html=1;" vertex="1" parent="1">
          <mxGeometry x="1100" y="780" width="70" height="50" as="geometry" />
        </mxCell>
        <mxCell id="r3QJC4EsxG-5MnpAkBXW-22" value="" style="endArrow=none;html=1;rounded=0;exitX=0.5;exitY=1;exitDx=0;exitDy=0;entryX=0.5;entryY=0;entryDx=0;entryDy=0;" edge="1" parent="1" source="A0Q72YRL7aFaCpaF5peR-10" target="r3QJC4EsxG-5MnpAkBXW-21">
          <mxGeometry width="50" height="50" relative="1" as="geometry">
            <mxPoint x="1290" y="735" as="sourcePoint" />
            <mxPoint x="1205" y="840" as="targetPoint" />
          </mxGeometry>
        </mxCell>
        <mxCell id="r3QJC4EsxG-5MnpAkBXW-23" value="" style="endArrow=none;html=1;rounded=0;exitX=0.5;exitY=0;exitDx=0;exitDy=0;entryX=0.5;entryY=1;entryDx=0;entryDy=0;" edge="1" parent="1" source="A0Q72YRL7aFaCpaF5peR-10" target="A0Q72YRL7aFaCpaF5peR-8">
          <mxGeometry width="50" height="50" relative="1" as="geometry">
            <mxPoint x="780" y="510" as="sourcePoint" />
            <mxPoint x="830" y="460" as="targetPoint" />
          </mxGeometry>
        </mxCell>
        <mxCell id="r3QJC4EsxG-5MnpAkBXW-24" value="makes" style="rhombus;whiteSpace=wrap;html=1;" vertex="1" parent="1">
          <mxGeometry x="1240" y="431" width="80" height="80" as="geometry" />
        </mxCell>
        <mxCell id="r3QJC4EsxG-5MnpAkBXW-26" value="(1,1)" style="text;html=1;align=center;verticalAlign=middle;whiteSpace=wrap;rounded=0;" vertex="1" parent="1">
          <mxGeometry x="1220" y="511" width="60" height="30" as="geometry" />
        </mxCell>
        <mxCell id="r3QJC4EsxG-5MnpAkBXW-27" value="&lt;u&gt;RoomID&lt;/u&gt;" style="ellipse;whiteSpace=wrap;html=1;" vertex="1" parent="1">
          <mxGeometry x="1530" y="155" width="70" height="50" as="geometry" />
        </mxCell>
        <mxCell id="r3QJC4EsxG-5MnpAkBXW-28" value="RoomName" style="ellipse;whiteSpace=wrap;html=1;" vertex="1" parent="1">
          <mxGeometry x="1590" y="110" width="70" height="50" as="geometry" />
        </mxCell>
        <mxCell id="r3QJC4EsxG-5MnpAkBXW-29" value="Capacity" style="ellipse;whiteSpace=wrap;html=1;" vertex="1" parent="1">
          <mxGeometry x="1750" y="80" width="70" height="50" as="geometry" />
        </mxCell>
        <mxCell id="r3QJC4EsxG-5MnpAkBXW-30" value="RoomType" style="ellipse;whiteSpace=wrap;html=1;" vertex="1" parent="1">
          <mxGeometry x="1665" y="80" width="70" height="50" as="geometry" />
        </mxCell>
        <mxCell id="r3QJC4EsxG-5MnpAkBXW-31" value="Location" style="ellipse;whiteSpace=wrap;html=1;" vertex="1" parent="1">
          <mxGeometry x="1800" y="130" width="70" height="50" as="geometry" />
        </mxCell>
        <mxCell id="r3QJC4EsxG-5MnpAkBXW-33" value="" style="endArrow=none;html=1;rounded=0;entryX=0.5;entryY=0;entryDx=0;entryDy=0;exitX=0.5;exitY=1;exitDx=0;exitDy=0;" edge="1" parent="1" source="r3QJC4EsxG-5MnpAkBXW-27" target="A0Q72YRL7aFaCpaF5peR-9">
          <mxGeometry width="50" height="50" relative="1" as="geometry">
            <mxPoint x="1290" y="250" as="sourcePoint" />
            <mxPoint x="1455" y="215" as="targetPoint" />
          </mxGeometry>
        </mxCell>
        <mxCell id="r3QJC4EsxG-5MnpAkBXW-34" value="" style="endArrow=none;html=1;rounded=0;entryX=0.5;entryY=0;entryDx=0;entryDy=0;exitX=0.5;exitY=1;exitDx=0;exitDy=0;" edge="1" parent="1" source="r3QJC4EsxG-5MnpAkBXW-28" target="A0Q72YRL7aFaCpaF5peR-9">
          <mxGeometry width="50" height="50" relative="1" as="geometry">
            <mxPoint x="1575" y="215" as="sourcePoint" />
            <mxPoint x="1750" y="250" as="targetPoint" />
          </mxGeometry>
        </mxCell>
        <mxCell id="r3QJC4EsxG-5MnpAkBXW-35" value="" style="endArrow=none;html=1;rounded=0;entryX=0.5;entryY=0;entryDx=0;entryDy=0;exitX=0.5;exitY=1;exitDx=0;exitDy=0;" edge="1" parent="1" source="r3QJC4EsxG-5MnpAkBXW-30" target="A0Q72YRL7aFaCpaF5peR-9">
          <mxGeometry width="50" height="50" relative="1" as="geometry">
            <mxPoint x="1635" y="170" as="sourcePoint" />
            <mxPoint x="1750" y="250" as="targetPoint" />
          </mxGeometry>
        </mxCell>
        <mxCell id="r3QJC4EsxG-5MnpAkBXW-36" value="" style="endArrow=none;html=1;rounded=0;entryX=0.5;entryY=0;entryDx=0;entryDy=0;exitX=0.5;exitY=1;exitDx=0;exitDy=0;" edge="1" parent="1" source="r3QJC4EsxG-5MnpAkBXW-29" target="A0Q72YRL7aFaCpaF5peR-9">
          <mxGeometry width="50" height="50" relative="1" as="geometry">
            <mxPoint x="1710" y="140" as="sourcePoint" />
            <mxPoint x="1750" y="250" as="targetPoint" />
          </mxGeometry>
        </mxCell>
        <mxCell id="r3QJC4EsxG-5MnpAkBXW-37" value="" style="endArrow=none;html=1;rounded=0;entryX=0.5;entryY=0;entryDx=0;entryDy=0;exitX=0.5;exitY=1;exitDx=0;exitDy=0;" edge="1" parent="1" source="r3QJC4EsxG-5MnpAkBXW-31" target="A0Q72YRL7aFaCpaF5peR-9">
          <mxGeometry width="50" height="50" relative="1" as="geometry">
            <mxPoint x="1795" y="140" as="sourcePoint" />
            <mxPoint x="1750" y="250" as="targetPoint" />
          </mxGeometry>
        </mxCell>
        <mxCell id="r3QJC4EsxG-5MnpAkBXW-38" value="&lt;u&gt;SubjectID&lt;/u&gt;" style="ellipse;whiteSpace=wrap;html=1;" vertex="1" parent="1">
          <mxGeometry x="1579" y="1180" width="70" height="50" as="geometry" />
        </mxCell>
        <mxCell id="r3QJC4EsxG-5MnpAkBXW-39" value="SubjectName" style="ellipse;whiteSpace=wrap;html=1;" vertex="1" parent="1">
          <mxGeometry x="1659" y="1190" width="70" height="50" as="geometry" />
        </mxCell>
        <mxCell id="r3QJC4EsxG-5MnpAkBXW-40" value="Credits" style="ellipse;whiteSpace=wrap;html=1;" vertex="1" parent="1">
          <mxGeometry x="1739" y="1190" width="70" height="50" as="geometry" />
        </mxCell>
        <mxCell id="r3QJC4EsxG-5MnpAkBXW-41" value="SubjectType" style="ellipse;whiteSpace=wrap;html=1;" vertex="1" parent="1">
          <mxGeometry x="1819" y="1180" width="70" height="50" as="geometry" />
        </mxCell>
        <mxCell id="r3QJC4EsxG-5MnpAkBXW-42" value="" style="endArrow=none;html=1;rounded=0;entryX=0.5;entryY=1;entryDx=0;entryDy=0;exitX=0.5;exitY=0;exitDx=0;exitDy=0;" edge="1" parent="1" source="r3QJC4EsxG-5MnpAkBXW-39" target="A0Q72YRL7aFaCpaF5peR-12">
          <mxGeometry width="50" height="50" relative="1" as="geometry">
            <mxPoint x="1739" y="1190" as="sourcePoint" />
            <mxPoint x="1739" y="1140" as="targetPoint" />
          </mxGeometry>
        </mxCell>
        <mxCell id="r3QJC4EsxG-5MnpAkBXW-43" value="" style="endArrow=none;html=1;rounded=0;entryX=0.5;entryY=1;entryDx=0;entryDy=0;exitX=0.5;exitY=0;exitDx=0;exitDy=0;" edge="1" parent="1" source="r3QJC4EsxG-5MnpAkBXW-38" target="A0Q72YRL7aFaCpaF5peR-12">
          <mxGeometry width="50" height="50" relative="1" as="geometry">
            <mxPoint x="1749" y="1200" as="sourcePoint" />
            <mxPoint x="1749" y="1130" as="targetPoint" />
          </mxGeometry>
        </mxCell>
        <mxCell id="r3QJC4EsxG-5MnpAkBXW-44" value="" style="endArrow=none;html=1;rounded=0;exitX=0.5;exitY=0;exitDx=0;exitDy=0;" edge="1" parent="1" source="r3QJC4EsxG-5MnpAkBXW-40">
          <mxGeometry width="50" height="50" relative="1" as="geometry">
            <mxPoint x="1704" y="1200" as="sourcePoint" />
            <mxPoint x="1739" y="1120" as="targetPoint" />
          </mxGeometry>
        </mxCell>
        <mxCell id="r3QJC4EsxG-5MnpAkBXW-45" value="" style="endArrow=none;html=1;rounded=0;exitX=0.5;exitY=0;exitDx=0;exitDy=0;entryX=0.5;entryY=1;entryDx=0;entryDy=0;" edge="1" parent="1" source="r3QJC4EsxG-5MnpAkBXW-41" target="A0Q72YRL7aFaCpaF5peR-12">
          <mxGeometry width="50" height="50" relative="1" as="geometry">
            <mxPoint x="1784" y="1200" as="sourcePoint" />
            <mxPoint x="1749" y="1130" as="targetPoint" />
          </mxGeometry>
        </mxCell>
        <mxCell id="r3QJC4EsxG-5MnpAkBXW-46" value="&lt;u&gt;CourseID&lt;/u&gt;" style="ellipse;whiteSpace=wrap;html=1;" vertex="1" parent="1">
          <mxGeometry x="1570" y="590.5" width="70" height="50" as="geometry" />
        </mxCell>
        <mxCell id="r3QJC4EsxG-5MnpAkBXW-47" value="Periods" style="ellipse;whiteSpace=wrap;html=1;" vertex="1" parent="1">
          <mxGeometry x="1640" y="550.5" width="70" height="50" as="geometry" />
        </mxCell>
        <mxCell id="r3QJC4EsxG-5MnpAkBXW-48" value="ClassName" style="ellipse;whiteSpace=wrap;html=1;" vertex="1" parent="1">
          <mxGeometry x="1760" y="550.5" width="70" height="50" as="geometry" />
        </mxCell>
        <mxCell id="r3QJC4EsxG-5MnpAkBXW-49" value="Cohort" style="ellipse;whiteSpace=wrap;html=1;" vertex="1" parent="1">
          <mxGeometry x="1830" y="590.5" width="70" height="50" as="geometry" />
        </mxCell>
        <mxCell id="r3QJC4EsxG-5MnpAkBXW-50" value="ClassSize" style="ellipse;whiteSpace=wrap;html=1;" vertex="1" parent="1">
          <mxGeometry x="1640" y="790" width="70" height="50" as="geometry" />
        </mxCell>
        <mxCell id="r3QJC4EsxG-5MnpAkBXW-51" value="ClassType" style="ellipse;whiteSpace=wrap;html=1;" vertex="1" parent="1">
          <mxGeometry x="1770" y="789.5" width="70" height="50" as="geometry" />
        </mxCell>
        <mxCell id="r3QJC4EsxG-5MnpAkBXW-52" value="" style="endArrow=none;html=1;rounded=0;exitX=0.5;exitY=0;exitDx=0;exitDy=0;entryX=0.5;entryY=1;entryDx=0;entryDy=0;" edge="1" parent="1" source="A0Q72YRL7aFaCpaF5peR-11" target="r3QJC4EsxG-5MnpAkBXW-46">
          <mxGeometry width="50" height="50" relative="1" as="geometry">
            <mxPoint x="1710" y="639.5" as="sourcePoint" />
            <mxPoint x="1760" y="589.5" as="targetPoint" />
          </mxGeometry>
        </mxCell>
        <mxCell id="r3QJC4EsxG-5MnpAkBXW-53" value="" style="endArrow=none;html=1;rounded=0;exitX=0.5;exitY=0;exitDx=0;exitDy=0;entryX=0.5;entryY=1;entryDx=0;entryDy=0;" edge="1" parent="1" source="A0Q72YRL7aFaCpaF5peR-11" target="r3QJC4EsxG-5MnpAkBXW-47">
          <mxGeometry width="50" height="50" relative="1" as="geometry">
            <mxPoint x="1750" y="679.5" as="sourcePoint" />
            <mxPoint x="1625" y="669.5" as="targetPoint" />
          </mxGeometry>
        </mxCell>
        <mxCell id="r3QJC4EsxG-5MnpAkBXW-54" value="" style="endArrow=none;html=1;rounded=0;exitX=0.5;exitY=0;exitDx=0;exitDy=0;entryX=0.5;entryY=1;entryDx=0;entryDy=0;" edge="1" parent="1" source="A0Q72YRL7aFaCpaF5peR-11" target="r3QJC4EsxG-5MnpAkBXW-48">
          <mxGeometry width="50" height="50" relative="1" as="geometry">
            <mxPoint x="1750" y="679.5" as="sourcePoint" />
            <mxPoint x="1695" y="610.5" as="targetPoint" />
          </mxGeometry>
        </mxCell>
        <mxCell id="r3QJC4EsxG-5MnpAkBXW-55" value="" style="endArrow=none;html=1;rounded=0;entryX=0.5;entryY=1;entryDx=0;entryDy=0;" edge="1" parent="1" target="r3QJC4EsxG-5MnpAkBXW-49">
          <mxGeometry width="50" height="50" relative="1" as="geometry">
            <mxPoint x="1740" y="669.5" as="sourcePoint" />
            <mxPoint x="1785" y="610.5" as="targetPoint" />
          </mxGeometry>
        </mxCell>
        <mxCell id="r3QJC4EsxG-5MnpAkBXW-56" value="" style="endArrow=none;html=1;rounded=0;exitX=0.5;exitY=1;exitDx=0;exitDy=0;entryX=0.5;entryY=0;entryDx=0;entryDy=0;" edge="1" parent="1" source="A0Q72YRL7aFaCpaF5peR-11" target="r3QJC4EsxG-5MnpAkBXW-50">
          <mxGeometry width="50" height="50" relative="1" as="geometry">
            <mxPoint x="1750" y="679.5" as="sourcePoint" />
            <mxPoint x="1615" y="650.5" as="targetPoint" />
          </mxGeometry>
        </mxCell>
        <mxCell id="r3QJC4EsxG-5MnpAkBXW-57" value="" style="endArrow=none;html=1;rounded=0;exitX=0.5;exitY=1;exitDx=0;exitDy=0;entryX=0.5;entryY=0;entryDx=0;entryDy=0;" edge="1" parent="1" source="A0Q72YRL7aFaCpaF5peR-11" target="r3QJC4EsxG-5MnpAkBXW-51">
          <mxGeometry width="50" height="50" relative="1" as="geometry">
            <mxPoint x="1750" y="739.5" as="sourcePoint" />
            <mxPoint x="1725" y="799.5" as="targetPoint" />
          </mxGeometry>
        </mxCell>
        <mxCell id="r3QJC4EsxG-5MnpAkBXW-58" value="&lt;u&gt;ScheduleID&lt;/u&gt;" style="ellipse;whiteSpace=wrap;html=1;" vertex="1" parent="1">
          <mxGeometry x="2080" y="760" width="70" height="50" as="geometry" />
        </mxCell>
        <mxCell id="r3QJC4EsxG-5MnpAkBXW-59" value="Semeter" style="ellipse;whiteSpace=wrap;html=1;" vertex="1" parent="1">
          <mxGeometry x="2185" y="800" width="70" height="50" as="geometry" />
        </mxCell>
        <mxCell id="r3QJC4EsxG-5MnpAkBXW-60" value="Year" style="ellipse;whiteSpace=wrap;html=1;" vertex="1" parent="1">
          <mxGeometry x="2290" y="760" width="70" height="50" as="geometry" />
        </mxCell>
        <mxCell id="r3QJC4EsxG-5MnpAkBXW-61" value="" style="endArrow=none;html=1;rounded=0;entryX=0.5;entryY=1;entryDx=0;entryDy=0;exitX=0.5;exitY=0;exitDx=0;exitDy=0;" edge="1" parent="1" source="r3QJC4EsxG-5MnpAkBXW-58" target="A0Q72YRL7aFaCpaF5peR-13">
          <mxGeometry width="50" height="50" relative="1" as="geometry">
            <mxPoint x="2250" y="819.5" as="sourcePoint" />
            <mxPoint x="2300" y="769.5" as="targetPoint" />
          </mxGeometry>
        </mxCell>
        <mxCell id="r3QJC4EsxG-5MnpAkBXW-62" value="" style="endArrow=none;html=1;rounded=0;entryX=0.5;entryY=1;entryDx=0;entryDy=0;exitX=0.5;exitY=0;exitDx=0;exitDy=0;" edge="1" parent="1" source="r3QJC4EsxG-5MnpAkBXW-59" target="A0Q72YRL7aFaCpaF5peR-13">
          <mxGeometry width="50" height="50" relative="1" as="geometry">
            <mxPoint x="2195" y="779.5" as="sourcePoint" />
            <mxPoint x="2300" y="739.5" as="targetPoint" />
          </mxGeometry>
        </mxCell>
        <mxCell id="r3QJC4EsxG-5MnpAkBXW-63" value="" style="endArrow=none;html=1;rounded=0;entryX=0.5;entryY=1;entryDx=0;entryDy=0;exitX=0.5;exitY=0;exitDx=0;exitDy=0;" edge="1" parent="1" source="r3QJC4EsxG-5MnpAkBXW-60" target="A0Q72YRL7aFaCpaF5peR-13">
          <mxGeometry width="50" height="50" relative="1" as="geometry">
            <mxPoint x="2295" y="809.5" as="sourcePoint" />
            <mxPoint x="2300" y="739.5" as="targetPoint" />
          </mxGeometry>
        </mxCell>
        <mxCell id="r3QJC4EsxG-5MnpAkBXW-64" value="" style="endArrow=none;html=1;rounded=0;exitX=0.5;exitY=0;exitDx=0;exitDy=0;entryX=0.5;entryY=1;entryDx=0;entryDy=0;" edge="1" parent="1" source="A0Q72YRL7aFaCpaF5peR-11" target="A0Q72YRL7aFaCpaF5peR-9">
          <mxGeometry width="50" height="50" relative="1" as="geometry">
            <mxPoint x="1730" y="680" as="sourcePoint" />
            <mxPoint x="1730" y="315" as="targetPoint" />
          </mxGeometry>
        </mxCell>
        <mxCell id="r3QJC4EsxG-5MnpAkBXW-65" value="takes place" style="rhombus;whiteSpace=wrap;html=1;" vertex="1" parent="1">
          <mxGeometry x="1700" y="431" width="80" height="80" as="geometry" />
        </mxCell>
        <mxCell id="r3QJC4EsxG-5MnpAkBXW-66" value="" style="endArrow=none;html=1;rounded=0;exitX=1;exitY=0.5;exitDx=0;exitDy=0;entryX=0;entryY=0.5;entryDx=0;entryDy=0;" edge="1" parent="1" source="A0Q72YRL7aFaCpaF5peR-10" target="A0Q72YRL7aFaCpaF5peR-11">
          <mxGeometry width="50" height="50" relative="1" as="geometry">
            <mxPoint x="1290" y="675" as="sourcePoint" />
            <mxPoint x="1290" y="310" as="targetPoint" />
          </mxGeometry>
        </mxCell>
        <mxCell id="r3QJC4EsxG-5MnpAkBXW-67" value="teaches" style="rhombus;whiteSpace=wrap;html=1;" vertex="1" parent="1">
          <mxGeometry x="1460" y="660" width="80" height="80" as="geometry" />
        </mxCell>
        <mxCell id="r3QJC4EsxG-5MnpAkBXW-68" value="" style="endArrow=none;html=1;rounded=0;entryX=0.5;entryY=1;entryDx=0;entryDy=0;exitX=0.5;exitY=0;exitDx=0;exitDy=0;" edge="1" parent="1" source="A0Q72YRL7aFaCpaF5peR-12" target="A0Q72YRL7aFaCpaF5peR-11">
          <mxGeometry width="50" height="50" relative="1" as="geometry">
            <mxPoint x="1620" y="960" as="sourcePoint" />
            <mxPoint x="1670" y="910" as="targetPoint" />
          </mxGeometry>
        </mxCell>
        <mxCell id="r3QJC4EsxG-5MnpAkBXW-69" value="has" style="rhombus;whiteSpace=wrap;html=1;" vertex="1" parent="1">
          <mxGeometry x="1699" y="885" width="80" height="80" as="geometry" />
        </mxCell>
        <mxCell id="r3QJC4EsxG-5MnpAkBXW-70" value="" style="endArrow=none;html=1;rounded=0;exitX=1;exitY=0.5;exitDx=0;exitDy=0;entryX=0;entryY=0.5;entryDx=0;entryDy=0;" edge="1" parent="1" source="r3QJC4EsxG-5MnpAkBXW-71" target="A0Q72YRL7aFaCpaF5peR-13">
          <mxGeometry width="50" height="50" relative="1" as="geometry">
            <mxPoint x="2000" y="780" as="sourcePoint" />
            <mxPoint x="2050" y="730" as="targetPoint" />
          </mxGeometry>
        </mxCell>
        <mxCell id="r3QJC4EsxG-5MnpAkBXW-72" value="" style="endArrow=none;html=1;rounded=0;exitX=1;exitY=0.5;exitDx=0;exitDy=0;entryX=0;entryY=0.5;entryDx=0;entryDy=0;" edge="1" parent="1" source="A0Q72YRL7aFaCpaF5peR-11" target="r3QJC4EsxG-5MnpAkBXW-71">
          <mxGeometry width="50" height="50" relative="1" as="geometry">
            <mxPoint x="1800" y="700" as="sourcePoint" />
            <mxPoint x="2230" y="701" as="targetPoint" />
          </mxGeometry>
        </mxCell>
        <mxCell id="r3QJC4EsxG-5MnpAkBXW-71" value="has" style="rhombus;whiteSpace=wrap;html=1;" vertex="1" parent="1">
          <mxGeometry x="1950" y="659.5" width="80" height="80" as="geometry" />
        </mxCell>
        <mxCell id="r3QJC4EsxG-5MnpAkBXW-73" value="(0,n)" style="text;html=1;align=center;verticalAlign=middle;whiteSpace=wrap;rounded=0;" vertex="1" parent="1">
          <mxGeometry x="1220" y="410" width="60" height="30" as="geometry" />
        </mxCell>
        <mxCell id="r3QJC4EsxG-5MnpAkBXW-74" value="(1,1)" style="text;html=1;align=center;verticalAlign=middle;whiteSpace=wrap;rounded=0;" vertex="1" parent="1">
          <mxGeometry x="1410" y="669.5" width="60" height="30" as="geometry" />
        </mxCell>
        <mxCell id="r3QJC4EsxG-5MnpAkBXW-75" value="(0,n)" style="text;html=1;align=center;verticalAlign=middle;whiteSpace=wrap;rounded=0;" vertex="1" parent="1">
          <mxGeometry x="1530" y="669.5" width="60" height="30" as="geometry" />
        </mxCell>
        <mxCell id="r3QJC4EsxG-5MnpAkBXW-76" value="(0,n)" style="text;html=1;align=center;verticalAlign=middle;whiteSpace=wrap;rounded=0;" vertex="1" parent="1">
          <mxGeometry x="1729" y="505" width="60" height="30" as="geometry" />
        </mxCell>
        <mxCell id="r3QJC4EsxG-5MnpAkBXW-77" value="(1,1)" style="text;html=1;align=center;verticalAlign=middle;whiteSpace=wrap;rounded=0;" vertex="1" parent="1">
          <mxGeometry x="1729" y="410" width="60" height="30" as="geometry" />
        </mxCell>
        <mxCell id="r3QJC4EsxG-5MnpAkBXW-78" value="(1,1)" style="text;html=1;align=center;verticalAlign=middle;whiteSpace=wrap;rounded=0;" vertex="1" parent="1">
          <mxGeometry x="1690" y="965" width="60" height="30" as="geometry" />
        </mxCell>
        <mxCell id="r3QJC4EsxG-5MnpAkBXW-79" value="(1,n)" style="text;html=1;align=center;verticalAlign=middle;whiteSpace=wrap;rounded=0;" vertex="1" parent="1">
          <mxGeometry x="1690" y="860" width="60" height="30" as="geometry" />
        </mxCell>
        <mxCell id="r3QJC4EsxG-5MnpAkBXW-80" value="(1,1)" style="text;html=1;align=center;verticalAlign=middle;whiteSpace=wrap;rounded=0;" vertex="1" parent="1">
          <mxGeometry x="2010" y="669.5" width="60" height="30" as="geometry" />
        </mxCell>
        <mxCell id="r3QJC4EsxG-5MnpAkBXW-81" value="(1,n)" style="text;html=1;align=center;verticalAlign=middle;whiteSpace=wrap;rounded=0;" vertex="1" parent="1">
          <mxGeometry x="1900" y="670" width="60" height="30" as="geometry" />
        </mxCell>
        <mxCell id="uhs0hdpgMSpCMbtizzQa-1" value="REQUEST" style="rounded=0;whiteSpace=wrap;html=1;" vertex="1" parent="1">
          <mxGeometry x="1270" y="1490" width="120" height="60" as="geometry" />
        </mxCell>
        <mxCell id="uhs0hdpgMSpCMbtizzQa-2" value="ROOM" style="rounded=0;whiteSpace=wrap;html=1;" vertex="1" parent="1">
          <mxGeometry x="1730" y="1490" width="120" height="60" as="geometry" />
        </mxCell>
        <mxCell id="uhs0hdpgMSpCMbtizzQa-3" value="LECTURER" style="rounded=0;whiteSpace=wrap;html=1;" vertex="1" parent="1">
          <mxGeometry x="1270" y="1920" width="120" height="60" as="geometry" />
        </mxCell>
        <mxCell id="uhs0hdpgMSpCMbtizzQa-4" value="COURSE" style="rounded=0;whiteSpace=wrap;html=1;" vertex="1" parent="1">
          <mxGeometry x="1730" y="1919.5" width="120" height="60" as="geometry" />
        </mxCell>
        <mxCell id="uhs0hdpgMSpCMbtizzQa-5" value="SUBJECT" style="rounded=0;whiteSpace=wrap;html=1;" vertex="1" parent="1">
          <mxGeometry x="1729" y="2310" width="120" height="60" as="geometry" />
        </mxCell>
        <mxCell id="uhs0hdpgMSpCMbtizzQa-6" value="SCHEDULE" style="rounded=0;whiteSpace=wrap;html=1;" vertex="1" parent="1">
          <mxGeometry x="2210" y="1920" width="120" height="60" as="geometry" />
        </mxCell>
        <mxCell id="uhs0hdpgMSpCMbtizzQa-7" value="&lt;u&gt;RequestID&lt;/u&gt;" style="ellipse;whiteSpace=wrap;html=1;" vertex="1" parent="1">
          <mxGeometry x="1130" y="1405" width="70" height="50" as="geometry" />
        </mxCell>
        <mxCell id="uhs0hdpgMSpCMbtizzQa-8" value="Content" style="ellipse;whiteSpace=wrap;html=1;" vertex="1" parent="1">
          <mxGeometry x="1200" y="1370" width="70" height="50" as="geometry" />
        </mxCell>
        <mxCell id="uhs0hdpgMSpCMbtizzQa-9" value="Status" style="ellipse;whiteSpace=wrap;html=1;" vertex="1" parent="1">
          <mxGeometry x="1295" y="1355" width="70" height="50" as="geometry" />
        </mxCell>
        <mxCell id="uhs0hdpgMSpCMbtizzQa-10" value="Time" style="ellipse;whiteSpace=wrap;html=1;" vertex="1" parent="1">
          <mxGeometry x="1390" y="1370" width="70" height="50" as="geometry" />
        </mxCell>
        <mxCell id="uhs0hdpgMSpCMbtizzQa-11" value="Date" style="ellipse;whiteSpace=wrap;html=1;" vertex="1" parent="1">
          <mxGeometry x="1460" y="1405" width="70" height="50" as="geometry" />
        </mxCell>
        <mxCell id="uhs0hdpgMSpCMbtizzQa-12" value="" style="endArrow=none;html=1;rounded=0;entryX=0.5;entryY=1;entryDx=0;entryDy=0;exitX=0.5;exitY=0;exitDx=0;exitDy=0;" edge="1" parent="1" source="uhs0hdpgMSpCMbtizzQa-1" target="uhs0hdpgMSpCMbtizzQa-7">
          <mxGeometry width="50" height="50" relative="1" as="geometry">
            <mxPoint x="1380" y="1510" as="sourcePoint" />
            <mxPoint x="1430" y="1460" as="targetPoint" />
          </mxGeometry>
        </mxCell>
        <mxCell id="uhs0hdpgMSpCMbtizzQa-13" value="" style="endArrow=none;html=1;rounded=0;entryX=0.5;entryY=1;entryDx=0;entryDy=0;exitX=0.5;exitY=0;exitDx=0;exitDy=0;" edge="1" parent="1" source="uhs0hdpgMSpCMbtizzQa-1" target="uhs0hdpgMSpCMbtizzQa-8">
          <mxGeometry width="50" height="50" relative="1" as="geometry">
            <mxPoint x="1340" y="1500" as="sourcePoint" />
            <mxPoint x="1175" y="1465" as="targetPoint" />
          </mxGeometry>
        </mxCell>
        <mxCell id="uhs0hdpgMSpCMbtizzQa-14" value="" style="endArrow=none;html=1;rounded=0;entryX=0.5;entryY=1;entryDx=0;entryDy=0;exitX=0.5;exitY=0;exitDx=0;exitDy=0;" edge="1" parent="1" source="uhs0hdpgMSpCMbtizzQa-1" target="uhs0hdpgMSpCMbtizzQa-9">
          <mxGeometry width="50" height="50" relative="1" as="geometry">
            <mxPoint x="1340" y="1500" as="sourcePoint" />
            <mxPoint x="1245" y="1430" as="targetPoint" />
          </mxGeometry>
        </mxCell>
        <mxCell id="uhs0hdpgMSpCMbtizzQa-15" value="" style="endArrow=none;html=1;rounded=0;entryX=0.5;entryY=1;entryDx=0;entryDy=0;exitX=0.5;exitY=0;exitDx=0;exitDy=0;" edge="1" parent="1" source="uhs0hdpgMSpCMbtizzQa-1" target="uhs0hdpgMSpCMbtizzQa-10">
          <mxGeometry width="50" height="50" relative="1" as="geometry">
            <mxPoint x="1340" y="1500" as="sourcePoint" />
            <mxPoint x="1340" y="1415" as="targetPoint" />
          </mxGeometry>
        </mxCell>
        <mxCell id="uhs0hdpgMSpCMbtizzQa-16" value="" style="endArrow=none;html=1;rounded=0;entryX=0.5;entryY=1;entryDx=0;entryDy=0;exitX=0.5;exitY=0;exitDx=0;exitDy=0;" edge="1" parent="1" source="uhs0hdpgMSpCMbtizzQa-1" target="uhs0hdpgMSpCMbtizzQa-11">
          <mxGeometry width="50" height="50" relative="1" as="geometry">
            <mxPoint x="1340" y="1500" as="sourcePoint" />
            <mxPoint x="1435" y="1430" as="targetPoint" />
          </mxGeometry>
        </mxCell>
        <mxCell id="uhs0hdpgMSpCMbtizzQa-17" value="LecturerName" style="ellipse;whiteSpace=wrap;html=1;" vertex="1" parent="1">
          <mxGeometry x="1190" y="2070" width="90" height="50" as="geometry" />
        </mxCell>
        <mxCell id="uhs0hdpgMSpCMbtizzQa-18" value="Title" style="ellipse;whiteSpace=wrap;html=1;" vertex="1" parent="1">
          <mxGeometry x="1295" y="2060" width="70" height="50" as="geometry" />
        </mxCell>
        <mxCell id="uhs0hdpgMSpCMbtizzQa-19" value="Email" style="ellipse;whiteSpace=wrap;html=1;" vertex="1" parent="1">
          <mxGeometry x="1380" y="2070" width="70" height="50" as="geometry" />
        </mxCell>
        <mxCell id="uhs0hdpgMSpCMbtizzQa-20" value="Password" style="ellipse;whiteSpace=wrap;html=1;" vertex="1" parent="1">
          <mxGeometry x="1440" y="2020" width="70" height="50" as="geometry" />
        </mxCell>
        <mxCell id="uhs0hdpgMSpCMbtizzQa-21" value="" style="endArrow=none;html=1;rounded=0;entryX=0.5;entryY=0;entryDx=0;entryDy=0;exitX=0.5;exitY=1;exitDx=0;exitDy=0;" edge="1" parent="1" source="uhs0hdpgMSpCMbtizzQa-3" target="uhs0hdpgMSpCMbtizzQa-18">
          <mxGeometry width="50" height="50" relative="1" as="geometry">
            <mxPoint x="1330" y="1980" as="sourcePoint" />
            <mxPoint x="1290" y="1820" as="targetPoint" />
          </mxGeometry>
        </mxCell>
        <mxCell id="uhs0hdpgMSpCMbtizzQa-22" value="" style="endArrow=none;html=1;rounded=0;exitX=0.5;exitY=1;exitDx=0;exitDy=0;entryX=0.5;entryY=0;entryDx=0;entryDy=0;" edge="1" parent="1" source="uhs0hdpgMSpCMbtizzQa-3" target="uhs0hdpgMSpCMbtizzQa-17">
          <mxGeometry width="50" height="50" relative="1" as="geometry">
            <mxPoint x="1340" y="1925" as="sourcePoint" />
            <mxPoint x="1340" y="1840" as="targetPoint" />
          </mxGeometry>
        </mxCell>
        <mxCell id="uhs0hdpgMSpCMbtizzQa-23" value="" style="endArrow=none;html=1;rounded=0;exitX=0.5;exitY=1;exitDx=0;exitDy=0;entryX=0.5;entryY=0;entryDx=0;entryDy=0;" edge="1" parent="1" source="uhs0hdpgMSpCMbtizzQa-3" target="uhs0hdpgMSpCMbtizzQa-19">
          <mxGeometry width="50" height="50" relative="1" as="geometry">
            <mxPoint x="1340" y="1925" as="sourcePoint" />
            <mxPoint x="1340" y="1840" as="targetPoint" />
          </mxGeometry>
        </mxCell>
        <mxCell id="uhs0hdpgMSpCMbtizzQa-24" value="" style="endArrow=none;html=1;rounded=0;exitX=0.5;exitY=1;exitDx=0;exitDy=0;entryX=0.5;entryY=0;entryDx=0;entryDy=0;" edge="1" parent="1" source="uhs0hdpgMSpCMbtizzQa-3" target="uhs0hdpgMSpCMbtizzQa-20">
          <mxGeometry width="50" height="50" relative="1" as="geometry">
            <mxPoint x="1340" y="1925" as="sourcePoint" />
            <mxPoint x="1425" y="1850" as="targetPoint" />
          </mxGeometry>
        </mxCell>
        <mxCell id="uhs0hdpgMSpCMbtizzQa-25" value="&lt;u&gt;LecturerID&lt;/u&gt;" style="ellipse;whiteSpace=wrap;html=1;" vertex="1" parent="1">
          <mxGeometry x="1140" y="2030" width="70" height="50" as="geometry" />
        </mxCell>
        <mxCell id="uhs0hdpgMSpCMbtizzQa-26" value="" style="endArrow=none;html=1;rounded=0;exitX=0.5;exitY=1;exitDx=0;exitDy=0;entryX=0.5;entryY=0;entryDx=0;entryDy=0;" edge="1" parent="1" source="uhs0hdpgMSpCMbtizzQa-3" target="uhs0hdpgMSpCMbtizzQa-25">
          <mxGeometry width="50" height="50" relative="1" as="geometry">
            <mxPoint x="1340" y="1985" as="sourcePoint" />
            <mxPoint x="1255" y="2090" as="targetPoint" />
          </mxGeometry>
        </mxCell>
        <mxCell id="uhs0hdpgMSpCMbtizzQa-27" value="" style="endArrow=none;html=1;rounded=0;exitX=0.5;exitY=0;exitDx=0;exitDy=0;entryX=0.5;entryY=1;entryDx=0;entryDy=0;" edge="1" parent="1" source="uhs0hdpgMSpCMbtizzQa-3" target="uhs0hdpgMSpCMbtizzQa-1">
          <mxGeometry width="50" height="50" relative="1" as="geometry">
            <mxPoint x="830" y="1760" as="sourcePoint" />
            <mxPoint x="880" y="1710" as="targetPoint" />
          </mxGeometry>
        </mxCell>
        <mxCell id="uhs0hdpgMSpCMbtizzQa-28" value="makes" style="rhombus;whiteSpace=wrap;html=1;" vertex="1" parent="1">
          <mxGeometry x="1290" y="1681" width="80" height="80" as="geometry" />
        </mxCell>
        <mxCell id="uhs0hdpgMSpCMbtizzQa-29" value="&lt;font style=&quot;font-size: 18px;&quot;&gt;&lt;b&gt;1&lt;/b&gt;&lt;/font&gt;" style="text;html=1;align=center;verticalAlign=middle;whiteSpace=wrap;rounded=0;" vertex="1" parent="1">
          <mxGeometry x="1270" y="1761" width="60" height="30" as="geometry" />
        </mxCell>
        <mxCell id="uhs0hdpgMSpCMbtizzQa-30" value="&lt;u&gt;RoomID&lt;/u&gt;" style="ellipse;whiteSpace=wrap;html=1;" vertex="1" parent="1">
          <mxGeometry x="1580" y="1405" width="70" height="50" as="geometry" />
        </mxCell>
        <mxCell id="uhs0hdpgMSpCMbtizzQa-31" value="RoomName" style="ellipse;whiteSpace=wrap;html=1;" vertex="1" parent="1">
          <mxGeometry x="1640" y="1360" width="70" height="50" as="geometry" />
        </mxCell>
        <mxCell id="uhs0hdpgMSpCMbtizzQa-32" value="Capacity" style="ellipse;whiteSpace=wrap;html=1;" vertex="1" parent="1">
          <mxGeometry x="1800" y="1330" width="70" height="50" as="geometry" />
        </mxCell>
        <mxCell id="uhs0hdpgMSpCMbtizzQa-33" value="RoomType" style="ellipse;whiteSpace=wrap;html=1;" vertex="1" parent="1">
          <mxGeometry x="1715" y="1330" width="70" height="50" as="geometry" />
        </mxCell>
        <mxCell id="uhs0hdpgMSpCMbtizzQa-34" value="Location" style="ellipse;whiteSpace=wrap;html=1;" vertex="1" parent="1">
          <mxGeometry x="1850" y="1380" width="70" height="50" as="geometry" />
        </mxCell>
        <mxCell id="uhs0hdpgMSpCMbtizzQa-35" value="" style="endArrow=none;html=1;rounded=0;entryX=0.5;entryY=0;entryDx=0;entryDy=0;exitX=0.5;exitY=1;exitDx=0;exitDy=0;" edge="1" parent="1" source="uhs0hdpgMSpCMbtizzQa-30" target="uhs0hdpgMSpCMbtizzQa-2">
          <mxGeometry width="50" height="50" relative="1" as="geometry">
            <mxPoint x="1340" y="1500" as="sourcePoint" />
            <mxPoint x="1505" y="1465" as="targetPoint" />
          </mxGeometry>
        </mxCell>
        <mxCell id="uhs0hdpgMSpCMbtizzQa-36" value="" style="endArrow=none;html=1;rounded=0;entryX=0.5;entryY=0;entryDx=0;entryDy=0;exitX=0.5;exitY=1;exitDx=0;exitDy=0;" edge="1" parent="1" source="uhs0hdpgMSpCMbtizzQa-31" target="uhs0hdpgMSpCMbtizzQa-2">
          <mxGeometry width="50" height="50" relative="1" as="geometry">
            <mxPoint x="1625" y="1465" as="sourcePoint" />
            <mxPoint x="1800" y="1500" as="targetPoint" />
          </mxGeometry>
        </mxCell>
        <mxCell id="uhs0hdpgMSpCMbtizzQa-37" value="" style="endArrow=none;html=1;rounded=0;entryX=0.5;entryY=0;entryDx=0;entryDy=0;exitX=0.5;exitY=1;exitDx=0;exitDy=0;" edge="1" parent="1" source="uhs0hdpgMSpCMbtizzQa-33" target="uhs0hdpgMSpCMbtizzQa-2">
          <mxGeometry width="50" height="50" relative="1" as="geometry">
            <mxPoint x="1685" y="1420" as="sourcePoint" />
            <mxPoint x="1800" y="1500" as="targetPoint" />
          </mxGeometry>
        </mxCell>
        <mxCell id="uhs0hdpgMSpCMbtizzQa-38" value="" style="endArrow=none;html=1;rounded=0;entryX=0.5;entryY=0;entryDx=0;entryDy=0;exitX=0.5;exitY=1;exitDx=0;exitDy=0;" edge="1" parent="1" source="uhs0hdpgMSpCMbtizzQa-32" target="uhs0hdpgMSpCMbtizzQa-2">
          <mxGeometry width="50" height="50" relative="1" as="geometry">
            <mxPoint x="1760" y="1390" as="sourcePoint" />
            <mxPoint x="1800" y="1500" as="targetPoint" />
          </mxGeometry>
        </mxCell>
        <mxCell id="uhs0hdpgMSpCMbtizzQa-39" value="" style="endArrow=none;html=1;rounded=0;entryX=0.5;entryY=0;entryDx=0;entryDy=0;exitX=0.5;exitY=1;exitDx=0;exitDy=0;" edge="1" parent="1" source="uhs0hdpgMSpCMbtizzQa-34" target="uhs0hdpgMSpCMbtizzQa-2">
          <mxGeometry width="50" height="50" relative="1" as="geometry">
            <mxPoint x="1845" y="1390" as="sourcePoint" />
            <mxPoint x="1800" y="1500" as="targetPoint" />
          </mxGeometry>
        </mxCell>
        <mxCell id="uhs0hdpgMSpCMbtizzQa-40" value="&lt;u&gt;SubjectID&lt;/u&gt;" style="ellipse;whiteSpace=wrap;html=1;" vertex="1" parent="1">
          <mxGeometry x="1620" y="2430" width="70" height="50" as="geometry" />
        </mxCell>
        <mxCell id="uhs0hdpgMSpCMbtizzQa-41" value="SubjectName" style="ellipse;whiteSpace=wrap;html=1;" vertex="1" parent="1">
          <mxGeometry x="1750" y="2440" width="79" height="50" as="geometry" />
        </mxCell>
        <mxCell id="uhs0hdpgMSpCMbtizzQa-42" value="Credits" style="ellipse;whiteSpace=wrap;html=1;" vertex="1" parent="1">
          <mxGeometry x="1880" y="2440" width="70" height="50" as="geometry" />
        </mxCell>
        <mxCell id="uhs0hdpgMSpCMbtizzQa-43" value="" style="endArrow=none;html=1;rounded=0;entryX=0.5;entryY=1;entryDx=0;entryDy=0;exitX=0.5;exitY=0;exitDx=0;exitDy=0;" edge="1" parent="1" source="uhs0hdpgMSpCMbtizzQa-41" target="uhs0hdpgMSpCMbtizzQa-5">
          <mxGeometry width="50" height="50" relative="1" as="geometry">
            <mxPoint x="1789" y="2440" as="sourcePoint" />
            <mxPoint x="1789" y="2390" as="targetPoint" />
          </mxGeometry>
        </mxCell>
        <mxCell id="uhs0hdpgMSpCMbtizzQa-44" value="" style="endArrow=none;html=1;rounded=0;entryX=0.5;entryY=1;entryDx=0;entryDy=0;exitX=0.5;exitY=0;exitDx=0;exitDy=0;" edge="1" parent="1" source="uhs0hdpgMSpCMbtizzQa-40" target="uhs0hdpgMSpCMbtizzQa-5">
          <mxGeometry width="50" height="50" relative="1" as="geometry">
            <mxPoint x="1799" y="2450" as="sourcePoint" />
            <mxPoint x="1799" y="2380" as="targetPoint" />
          </mxGeometry>
        </mxCell>
        <mxCell id="uhs0hdpgMSpCMbtizzQa-45" value="" style="endArrow=none;html=1;rounded=0;exitX=0.5;exitY=0;exitDx=0;exitDy=0;" edge="1" parent="1" source="uhs0hdpgMSpCMbtizzQa-42">
          <mxGeometry width="50" height="50" relative="1" as="geometry">
            <mxPoint x="1754" y="2450" as="sourcePoint" />
            <mxPoint x="1789" y="2370" as="targetPoint" />
          </mxGeometry>
        </mxCell>
        <mxCell id="uhs0hdpgMSpCMbtizzQa-46" value="&lt;u&gt;CourseID&lt;/u&gt;" style="ellipse;whiteSpace=wrap;html=1;" vertex="1" parent="1">
          <mxGeometry x="1620" y="1840.5" width="70" height="50" as="geometry" />
        </mxCell>
        <mxCell id="uhs0hdpgMSpCMbtizzQa-47" value="Periods" style="ellipse;whiteSpace=wrap;html=1;" vertex="1" parent="1">
          <mxGeometry x="1690" y="1800.5" width="70" height="50" as="geometry" />
        </mxCell>
        <mxCell id="uhs0hdpgMSpCMbtizzQa-48" value="ClassName" style="ellipse;whiteSpace=wrap;html=1;" vertex="1" parent="1">
          <mxGeometry x="1810" y="1800.5" width="70" height="50" as="geometry" />
        </mxCell>
        <mxCell id="uhs0hdpgMSpCMbtizzQa-49" value="Cohort" style="ellipse;whiteSpace=wrap;html=1;" vertex="1" parent="1">
          <mxGeometry x="1880" y="1840.5" width="70" height="50" as="geometry" />
        </mxCell>
        <mxCell id="uhs0hdpgMSpCMbtizzQa-50" value="ClassSize" style="ellipse;whiteSpace=wrap;html=1;" vertex="1" parent="1">
          <mxGeometry x="1604" y="2020" width="70" height="50" as="geometry" />
        </mxCell>
        <mxCell id="uhs0hdpgMSpCMbtizzQa-51" value="ClassType" style="ellipse;whiteSpace=wrap;html=1;" vertex="1" parent="1">
          <mxGeometry x="1703" y="2020" width="70" height="50" as="geometry" />
        </mxCell>
        <mxCell id="uhs0hdpgMSpCMbtizzQa-52" value="" style="endArrow=none;html=1;rounded=0;exitX=0.5;exitY=0;exitDx=0;exitDy=0;entryX=0.5;entryY=1;entryDx=0;entryDy=0;" edge="1" parent="1" source="uhs0hdpgMSpCMbtizzQa-4" target="uhs0hdpgMSpCMbtizzQa-46">
          <mxGeometry width="50" height="50" relative="1" as="geometry">
            <mxPoint x="1760" y="1889.5" as="sourcePoint" />
            <mxPoint x="1810" y="1839.5" as="targetPoint" />
          </mxGeometry>
        </mxCell>
        <mxCell id="uhs0hdpgMSpCMbtizzQa-53" value="" style="endArrow=none;html=1;rounded=0;exitX=0.5;exitY=0;exitDx=0;exitDy=0;entryX=0.5;entryY=1;entryDx=0;entryDy=0;" edge="1" parent="1" source="uhs0hdpgMSpCMbtizzQa-4" target="uhs0hdpgMSpCMbtizzQa-47">
          <mxGeometry width="50" height="50" relative="1" as="geometry">
            <mxPoint x="1800" y="1929.5" as="sourcePoint" />
            <mxPoint x="1675" y="1919.5" as="targetPoint" />
          </mxGeometry>
        </mxCell>
        <mxCell id="uhs0hdpgMSpCMbtizzQa-54" value="" style="endArrow=none;html=1;rounded=0;exitX=0.5;exitY=0;exitDx=0;exitDy=0;entryX=0.5;entryY=1;entryDx=0;entryDy=0;" edge="1" parent="1" source="uhs0hdpgMSpCMbtizzQa-4" target="uhs0hdpgMSpCMbtizzQa-48">
          <mxGeometry width="50" height="50" relative="1" as="geometry">
            <mxPoint x="1800" y="1929.5" as="sourcePoint" />
            <mxPoint x="1745" y="1860.5" as="targetPoint" />
          </mxGeometry>
        </mxCell>
        <mxCell id="uhs0hdpgMSpCMbtizzQa-55" value="" style="endArrow=none;html=1;rounded=0;entryX=0.5;entryY=1;entryDx=0;entryDy=0;" edge="1" parent="1" target="uhs0hdpgMSpCMbtizzQa-49">
          <mxGeometry width="50" height="50" relative="1" as="geometry">
            <mxPoint x="1790" y="1919.5" as="sourcePoint" />
            <mxPoint x="1835" y="1860.5" as="targetPoint" />
          </mxGeometry>
        </mxCell>
        <mxCell id="uhs0hdpgMSpCMbtizzQa-56" value="" style="endArrow=none;html=1;rounded=0;exitX=0.5;exitY=1;exitDx=0;exitDy=0;entryX=0.5;entryY=0;entryDx=0;entryDy=0;" edge="1" parent="1" source="uhs0hdpgMSpCMbtizzQa-4" target="uhs0hdpgMSpCMbtizzQa-50">
          <mxGeometry width="50" height="50" relative="1" as="geometry">
            <mxPoint x="1800" y="1929.5" as="sourcePoint" />
            <mxPoint x="1665" y="1900.5" as="targetPoint" />
          </mxGeometry>
        </mxCell>
        <mxCell id="uhs0hdpgMSpCMbtizzQa-57" value="" style="endArrow=none;html=1;rounded=0;exitX=0.5;exitY=1;exitDx=0;exitDy=0;entryX=0.5;entryY=0;entryDx=0;entryDy=0;" edge="1" parent="1" source="uhs0hdpgMSpCMbtizzQa-4" target="uhs0hdpgMSpCMbtizzQa-51">
          <mxGeometry width="50" height="50" relative="1" as="geometry">
            <mxPoint x="1800" y="1989.5" as="sourcePoint" />
            <mxPoint x="1775" y="2049.5" as="targetPoint" />
          </mxGeometry>
        </mxCell>
        <mxCell id="uhs0hdpgMSpCMbtizzQa-58" value="&lt;u&gt;ScheduleID&lt;/u&gt;" style="ellipse;whiteSpace=wrap;html=1;" vertex="1" parent="1">
          <mxGeometry x="2130" y="2010" width="70" height="50" as="geometry" />
        </mxCell>
        <mxCell id="uhs0hdpgMSpCMbtizzQa-59" value="Semeter" style="ellipse;whiteSpace=wrap;html=1;" vertex="1" parent="1">
          <mxGeometry x="2235" y="2050" width="70" height="50" as="geometry" />
        </mxCell>
        <mxCell id="uhs0hdpgMSpCMbtizzQa-60" value="Year" style="ellipse;whiteSpace=wrap;html=1;" vertex="1" parent="1">
          <mxGeometry x="2340" y="2010" width="70" height="50" as="geometry" />
        </mxCell>
        <mxCell id="uhs0hdpgMSpCMbtizzQa-61" value="" style="endArrow=none;html=1;rounded=0;entryX=0.5;entryY=1;entryDx=0;entryDy=0;exitX=0.5;exitY=0;exitDx=0;exitDy=0;" edge="1" parent="1" source="uhs0hdpgMSpCMbtizzQa-58" target="uhs0hdpgMSpCMbtizzQa-6">
          <mxGeometry width="50" height="50" relative="1" as="geometry">
            <mxPoint x="2300" y="2069.5" as="sourcePoint" />
            <mxPoint x="2350" y="2019.5" as="targetPoint" />
          </mxGeometry>
        </mxCell>
        <mxCell id="uhs0hdpgMSpCMbtizzQa-62" value="" style="endArrow=none;html=1;rounded=0;entryX=0.5;entryY=1;entryDx=0;entryDy=0;exitX=0.5;exitY=0;exitDx=0;exitDy=0;" edge="1" parent="1" source="uhs0hdpgMSpCMbtizzQa-59" target="uhs0hdpgMSpCMbtizzQa-6">
          <mxGeometry width="50" height="50" relative="1" as="geometry">
            <mxPoint x="2245" y="2029.5" as="sourcePoint" />
            <mxPoint x="2350" y="1989.5" as="targetPoint" />
          </mxGeometry>
        </mxCell>
        <mxCell id="uhs0hdpgMSpCMbtizzQa-63" value="" style="endArrow=none;html=1;rounded=0;entryX=0.5;entryY=1;entryDx=0;entryDy=0;exitX=0.5;exitY=0;exitDx=0;exitDy=0;" edge="1" parent="1" source="uhs0hdpgMSpCMbtizzQa-60" target="uhs0hdpgMSpCMbtizzQa-6">
          <mxGeometry width="50" height="50" relative="1" as="geometry">
            <mxPoint x="2345" y="2059.5" as="sourcePoint" />
            <mxPoint x="2350" y="1989.5" as="targetPoint" />
          </mxGeometry>
        </mxCell>
        <mxCell id="uhs0hdpgMSpCMbtizzQa-64" value="" style="endArrow=none;html=1;rounded=0;exitX=0.5;exitY=0;exitDx=0;exitDy=0;entryX=0.5;entryY=1;entryDx=0;entryDy=0;" edge="1" parent="1" source="uhs0hdpgMSpCMbtizzQa-4" target="uhs0hdpgMSpCMbtizzQa-2">
          <mxGeometry width="50" height="50" relative="1" as="geometry">
            <mxPoint x="1780" y="1930" as="sourcePoint" />
            <mxPoint x="1780" y="1565" as="targetPoint" />
          </mxGeometry>
        </mxCell>
        <mxCell id="uhs0hdpgMSpCMbtizzQa-65" value="takes place" style="rhombus;whiteSpace=wrap;html=1;" vertex="1" parent="1">
          <mxGeometry x="1750" y="1681" width="80" height="80" as="geometry" />
        </mxCell>
        <mxCell id="uhs0hdpgMSpCMbtizzQa-66" value="" style="endArrow=none;html=1;rounded=0;exitX=1;exitY=0.5;exitDx=0;exitDy=0;entryX=0;entryY=0.5;entryDx=0;entryDy=0;" edge="1" parent="1" source="uhs0hdpgMSpCMbtizzQa-3" target="uhs0hdpgMSpCMbtizzQa-4">
          <mxGeometry width="50" height="50" relative="1" as="geometry">
            <mxPoint x="1340" y="1925" as="sourcePoint" />
            <mxPoint x="1340" y="1560" as="targetPoint" />
          </mxGeometry>
        </mxCell>
        <mxCell id="uhs0hdpgMSpCMbtizzQa-67" value="teaches" style="rhombus;whiteSpace=wrap;html=1;" vertex="1" parent="1">
          <mxGeometry x="1510" y="1910" width="80" height="80" as="geometry" />
        </mxCell>
        <mxCell id="uhs0hdpgMSpCMbtizzQa-68" value="" style="endArrow=none;html=1;rounded=0;entryX=0.5;entryY=1;entryDx=0;entryDy=0;exitX=0.5;exitY=0;exitDx=0;exitDy=0;" edge="1" parent="1" source="uhs0hdpgMSpCMbtizzQa-5" target="uhs0hdpgMSpCMbtizzQa-4">
          <mxGeometry width="50" height="50" relative="1" as="geometry">
            <mxPoint x="1670" y="2210" as="sourcePoint" />
            <mxPoint x="1720" y="2160" as="targetPoint" />
          </mxGeometry>
        </mxCell>
        <mxCell id="uhs0hdpgMSpCMbtizzQa-69" value="has" style="rhombus;whiteSpace=wrap;html=1;" vertex="1" parent="1">
          <mxGeometry x="1749" y="2135" width="80" height="80" as="geometry" />
        </mxCell>
        <mxCell id="uhs0hdpgMSpCMbtizzQa-70" value="" style="endArrow=none;html=1;rounded=0;exitX=1;exitY=0.5;exitDx=0;exitDy=0;entryX=0;entryY=0.5;entryDx=0;entryDy=0;" edge="1" parent="1" source="uhs0hdpgMSpCMbtizzQa-72" target="uhs0hdpgMSpCMbtizzQa-6">
          <mxGeometry width="50" height="50" relative="1" as="geometry">
            <mxPoint x="2050" y="2030" as="sourcePoint" />
            <mxPoint x="2100" y="1980" as="targetPoint" />
          </mxGeometry>
        </mxCell>
        <mxCell id="uhs0hdpgMSpCMbtizzQa-71" value="" style="endArrow=none;html=1;rounded=0;exitX=1;exitY=0.5;exitDx=0;exitDy=0;entryX=0;entryY=0.5;entryDx=0;entryDy=0;" edge="1" parent="1" source="uhs0hdpgMSpCMbtizzQa-4" target="uhs0hdpgMSpCMbtizzQa-72">
          <mxGeometry width="50" height="50" relative="1" as="geometry">
            <mxPoint x="1850" y="1950" as="sourcePoint" />
            <mxPoint x="2280" y="1951" as="targetPoint" />
          </mxGeometry>
        </mxCell>
        <mxCell id="uhs0hdpgMSpCMbtizzQa-72" value="has" style="rhombus;whiteSpace=wrap;html=1;" vertex="1" parent="1">
          <mxGeometry x="2000" y="1909.5" width="80" height="80" as="geometry" />
        </mxCell>
        <mxCell id="uhs0hdpgMSpCMbtizzQa-73" value="&lt;font style=&quot;font-size: 18px;&quot;&gt;&lt;b&gt;n&lt;/b&gt;&lt;/font&gt;" style="text;html=1;align=center;verticalAlign=middle;whiteSpace=wrap;rounded=0;" vertex="1" parent="1">
          <mxGeometry x="1270" y="1660" width="60" height="30" as="geometry" />
        </mxCell>
        <mxCell id="uhs0hdpgMSpCMbtizzQa-74" value="&lt;font style=&quot;font-size: 18px;&quot;&gt;&lt;b&gt;1&lt;/b&gt;&lt;/font&gt;" style="text;html=1;align=center;verticalAlign=middle;whiteSpace=wrap;rounded=0;" vertex="1" parent="1">
          <mxGeometry x="1460" y="1919.5" width="60" height="30" as="geometry" />
        </mxCell>
        <mxCell id="uhs0hdpgMSpCMbtizzQa-75" value="&lt;b&gt;&lt;font style=&quot;font-size: 18px;&quot;&gt;n&lt;/font&gt;&lt;/b&gt;" style="text;html=1;align=center;verticalAlign=middle;whiteSpace=wrap;rounded=0;" vertex="1" parent="1">
          <mxGeometry x="1580" y="1919.5" width="60" height="30" as="geometry" />
        </mxCell>
        <mxCell id="uhs0hdpgMSpCMbtizzQa-76" value="&lt;b&gt;&lt;font style=&quot;font-size: 18px;&quot;&gt;n&lt;/font&gt;&lt;/b&gt;" style="text;html=1;align=center;verticalAlign=middle;whiteSpace=wrap;rounded=0;" vertex="1" parent="1">
          <mxGeometry x="1779" y="1755" width="60" height="30" as="geometry" />
        </mxCell>
        <mxCell id="uhs0hdpgMSpCMbtizzQa-77" value="&lt;font style=&quot;font-size: 18px;&quot;&gt;&lt;b&gt;1&lt;/b&gt;&lt;/font&gt;" style="text;html=1;align=center;verticalAlign=middle;whiteSpace=wrap;rounded=0;" vertex="1" parent="1">
          <mxGeometry x="1779" y="1660" width="60" height="30" as="geometry" />
        </mxCell>
        <mxCell id="uhs0hdpgMSpCMbtizzQa-78" value="&lt;b&gt;&lt;font style=&quot;font-size: 18px;&quot;&gt;1&lt;/font&gt;&lt;/b&gt;" style="text;html=1;align=center;verticalAlign=middle;whiteSpace=wrap;rounded=0;" vertex="1" parent="1">
          <mxGeometry x="1740" y="2215" width="60" height="30" as="geometry" />
        </mxCell>
        <mxCell id="uhs0hdpgMSpCMbtizzQa-79" value="&lt;b&gt;&lt;font style=&quot;font-size: 18px;&quot;&gt;n&lt;/font&gt;&lt;/b&gt;" style="text;html=1;align=center;verticalAlign=middle;whiteSpace=wrap;rounded=0;" vertex="1" parent="1">
          <mxGeometry x="1740" y="2110" width="60" height="30" as="geometry" />
        </mxCell>
        <mxCell id="uhs0hdpgMSpCMbtizzQa-80" value="&lt;b&gt;&lt;font style=&quot;font-size: 18px;&quot;&gt;1&lt;/font&gt;&lt;/b&gt;" style="text;html=1;align=center;verticalAlign=middle;whiteSpace=wrap;rounded=0;" vertex="1" parent="1">
          <mxGeometry x="2060" y="1919.5" width="60" height="30" as="geometry" />
        </mxCell>
        <mxCell id="uhs0hdpgMSpCMbtizzQa-81" value="&lt;font style=&quot;font-size: 18px;&quot;&gt;&lt;b&gt;n&lt;/b&gt;&lt;/font&gt;" style="text;html=1;align=center;verticalAlign=middle;whiteSpace=wrap;rounded=0;" vertex="1" parent="1">
          <mxGeometry x="1950" y="1920" width="60" height="30" as="geometry" />
        </mxCell>
        <mxCell id="uhs0hdpgMSpCMbtizzQa-82" value="CourseType" style="ellipse;whiteSpace=wrap;html=1;" vertex="1" parent="1">
          <mxGeometry x="1810" y="2020" width="70" height="50" as="geometry" />
        </mxCell>
        <mxCell id="uhs0hdpgMSpCMbtizzQa-83" value="" style="endArrow=none;html=1;rounded=0;exitX=0.5;exitY=1;exitDx=0;exitDy=0;entryX=0.5;entryY=0;entryDx=0;entryDy=0;" edge="1" parent="1" source="uhs0hdpgMSpCMbtizzQa-4" target="uhs0hdpgMSpCMbtizzQa-82">
          <mxGeometry width="50" height="50" relative="1" as="geometry">
            <mxPoint x="1800" y="1990" as="sourcePoint" />
            <mxPoint x="1748" y="2030" as="targetPoint" />
          </mxGeometry>
        </mxCell>
        <mxCell id="uhs0hdpgMSpCMbtizzQa-84" value="CourseType" style="shape=partialRectangle;connectable=0;fillColor=none;top=0;left=0;bottom=0;right=0;align=left;spacingLeft=6;overflow=hidden;whiteSpace=wrap;html=1;" vertex="1" parent="1">
          <mxGeometry x="350" y="780" width="150" height="30" as="geometry">
            <mxRectangle width="150" height="30" as="alternateBounds" />
          </mxGeometry>
        </mxCell>
        <mxCell id="uhs0hdpgMSpCMbtizzQa-85" value="NOTIFICATION" style="shape=table;startSize=30;container=1;collapsible=1;childLayout=tableLayout;fixedRows=1;rowLines=0;fontStyle=1;align=center;resizeLast=1;html=1;fillColor=#FFFFFF;" vertex="1" parent="1">
          <mxGeometry x="-410" y="350" width="180" height="290" as="geometry" />
        </mxCell>
        <mxCell id="uhs0hdpgMSpCMbtizzQa-86" value="" style="shape=tableRow;horizontal=0;startSize=0;swimlaneHead=0;swimlaneBody=0;fillColor=none;collapsible=0;dropTarget=0;points=[[0,0.5],[1,0.5]];portConstraint=eastwest;top=0;left=0;right=0;bottom=1;" vertex="1" parent="uhs0hdpgMSpCMbtizzQa-85">
          <mxGeometry y="30" width="180" height="30" as="geometry" />
        </mxCell>
        <mxCell id="uhs0hdpgMSpCMbtizzQa-87" value="PK" style="shape=partialRectangle;connectable=0;fillColor=none;top=0;left=0;bottom=0;right=0;fontStyle=1;overflow=hidden;whiteSpace=wrap;html=1;" vertex="1" parent="uhs0hdpgMSpCMbtizzQa-86">
          <mxGeometry width="30" height="30" as="geometry">
            <mxRectangle width="30" height="30" as="alternateBounds" />
          </mxGeometry>
        </mxCell>
        <mxCell id="uhs0hdpgMSpCMbtizzQa-88" value="NotiID" style="shape=partialRectangle;connectable=0;fillColor=none;top=0;left=0;bottom=0;right=0;align=left;spacingLeft=6;fontStyle=5;overflow=hidden;whiteSpace=wrap;html=1;" vertex="1" parent="uhs0hdpgMSpCMbtizzQa-86">
          <mxGeometry x="30" width="150" height="30" as="geometry">
            <mxRectangle width="150" height="30" as="alternateBounds" />
          </mxGeometry>
        </mxCell>
        <mxCell id="uhs0hdpgMSpCMbtizzQa-89" value="" style="shape=tableRow;horizontal=0;startSize=0;swimlaneHead=0;swimlaneBody=0;fillColor=none;collapsible=0;dropTarget=0;points=[[0,0.5],[1,0.5]];portConstraint=eastwest;top=0;left=0;right=0;bottom=0;" vertex="1" parent="uhs0hdpgMSpCMbtizzQa-85">
          <mxGeometry y="60" width="180" height="30" as="geometry" />
        </mxCell>
        <mxCell id="uhs0hdpgMSpCMbtizzQa-90" value="" style="shape=partialRectangle;connectable=0;fillColor=none;top=0;left=0;bottom=0;right=0;editable=1;overflow=hidden;whiteSpace=wrap;html=1;" vertex="1" parent="uhs0hdpgMSpCMbtizzQa-89">
          <mxGeometry width="30" height="30" as="geometry">
            <mxRectangle width="30" height="30" as="alternateBounds" />
          </mxGeometry>
        </mxCell>
        <mxCell id="uhs0hdpgMSpCMbtizzQa-91" value="LecturerID" style="shape=partialRectangle;connectable=0;fillColor=none;top=0;left=0;bottom=0;right=0;align=left;spacingLeft=6;overflow=hidden;whiteSpace=wrap;html=1;" vertex="1" parent="uhs0hdpgMSpCMbtizzQa-89">
          <mxGeometry x="30" width="150" height="30" as="geometry">
            <mxRectangle width="150" height="30" as="alternateBounds" />
          </mxGeometry>
        </mxCell>
        <mxCell id="uhs0hdpgMSpCMbtizzQa-92" value="" style="shape=tableRow;horizontal=0;startSize=0;swimlaneHead=0;swimlaneBody=0;fillColor=none;collapsible=0;dropTarget=0;points=[[0,0.5],[1,0.5]];portConstraint=eastwest;top=0;left=0;right=0;bottom=0;" vertex="1" parent="uhs0hdpgMSpCMbtizzQa-85">
          <mxGeometry y="90" width="180" height="30" as="geometry" />
        </mxCell>
        <mxCell id="uhs0hdpgMSpCMbtizzQa-93" value="" style="shape=partialRectangle;connectable=0;fillColor=none;top=0;left=0;bottom=0;right=0;editable=1;overflow=hidden;whiteSpace=wrap;html=1;" vertex="1" parent="uhs0hdpgMSpCMbtizzQa-92">
          <mxGeometry width="30" height="30" as="geometry">
            <mxRectangle width="30" height="30" as="alternateBounds" />
          </mxGeometry>
        </mxCell>
        <mxCell id="uhs0hdpgMSpCMbtizzQa-94" value="Title" style="shape=partialRectangle;connectable=0;fillColor=none;top=0;left=0;bottom=0;right=0;align=left;spacingLeft=6;overflow=hidden;whiteSpace=wrap;html=1;" vertex="1" parent="uhs0hdpgMSpCMbtizzQa-92">
          <mxGeometry x="30" width="150" height="30" as="geometry">
            <mxRectangle width="150" height="30" as="alternateBounds" />
          </mxGeometry>
        </mxCell>
        <mxCell id="uhs0hdpgMSpCMbtizzQa-95" value="" style="shape=tableRow;horizontal=0;startSize=0;swimlaneHead=0;swimlaneBody=0;fillColor=none;collapsible=0;dropTarget=0;points=[[0,0.5],[1,0.5]];portConstraint=eastwest;top=0;left=0;right=0;bottom=0;" vertex="1" parent="uhs0hdpgMSpCMbtizzQa-85">
          <mxGeometry y="120" width="180" height="30" as="geometry" />
        </mxCell>
        <mxCell id="uhs0hdpgMSpCMbtizzQa-96" value="" style="shape=partialRectangle;connectable=0;fillColor=none;top=0;left=0;bottom=0;right=0;editable=1;overflow=hidden;whiteSpace=wrap;html=1;" vertex="1" parent="uhs0hdpgMSpCMbtizzQa-95">
          <mxGeometry width="30" height="30" as="geometry">
            <mxRectangle width="30" height="30" as="alternateBounds" />
          </mxGeometry>
        </mxCell>
        <mxCell id="uhs0hdpgMSpCMbtizzQa-97" value="NotiType" style="shape=partialRectangle;connectable=0;fillColor=none;top=0;left=0;bottom=0;right=0;align=left;spacingLeft=6;overflow=hidden;whiteSpace=wrap;html=1;" vertex="1" parent="uhs0hdpgMSpCMbtizzQa-95">
          <mxGeometry x="30" width="150" height="30" as="geometry">
            <mxRectangle width="150" height="30" as="alternateBounds" />
          </mxGeometry>
        </mxCell>
        <mxCell id="uhs0hdpgMSpCMbtizzQa-98" value="Description" style="shape=partialRectangle;connectable=0;fillColor=none;top=0;left=0;bottom=0;right=0;align=left;spacingLeft=6;overflow=hidden;whiteSpace=wrap;html=1;" vertex="1" parent="1">
          <mxGeometry x="-380" y="500" width="150" height="30" as="geometry">
            <mxRectangle width="150" height="30" as="alternateBounds" />
          </mxGeometry>
        </mxCell>
        <mxCell id="uhs0hdpgMSpCMbtizzQa-99" value="Creator" style="shape=partialRectangle;connectable=0;fillColor=none;top=0;left=0;bottom=0;right=0;align=left;spacingLeft=6;overflow=hidden;whiteSpace=wrap;html=1;" vertex="1" parent="1">
          <mxGeometry x="-380" y="531" width="150" height="30" as="geometry">
            <mxRectangle width="150" height="30" as="alternateBounds" />
          </mxGeometry>
        </mxCell>
        <mxCell id="uhs0hdpgMSpCMbtizzQa-100" value="Time" style="shape=partialRectangle;connectable=0;fillColor=none;top=0;left=0;bottom=0;right=0;align=left;spacingLeft=6;overflow=hidden;whiteSpace=wrap;html=1;" vertex="1" parent="1">
          <mxGeometry x="-380" y="561" width="150" height="30" as="geometry">
            <mxRectangle width="150" height="30" as="alternateBounds" />
          </mxGeometry>
        </mxCell>
        <mxCell id="uhs0hdpgMSpCMbtizzQa-101" value="recieves" style="rhombus;whiteSpace=wrap;html=1;" vertex="1" parent="1">
          <mxGeometry x="-130" y="385" width="80" height="80" as="geometry" />
        </mxCell>
        <mxCell id="uhs0hdpgMSpCMbtizzQa-102" value="" style="endArrow=none;html=1;rounded=0;exitX=1;exitY=0.5;exitDx=0;exitDy=0;entryX=0;entryY=0.5;entryDx=0;entryDy=0;" edge="1" parent="1" source="uhs0hdpgMSpCMbtizzQa-89" target="uhs0hdpgMSpCMbtizzQa-101">
          <mxGeometry width="50" height="50" relative="1" as="geometry">
            <mxPoint x="-180" y="630" as="sourcePoint" />
            <mxPoint x="-130" y="425" as="targetPoint" />
          </mxGeometry>
        </mxCell>
        <mxCell id="uhs0hdpgMSpCMbtizzQa-104" value="FK1" style="shape=partialRectangle;connectable=0;fillColor=none;top=0;left=0;bottom=0;right=0;fontStyle=1;overflow=hidden;whiteSpace=wrap;html=1;" vertex="1" parent="1">
          <mxGeometry x="-410" y="410" width="30" height="30" as="geometry">
            <mxRectangle width="30" height="30" as="alternateBounds" />
          </mxGeometry>
        </mxCell>
        <mxCell id="uhs0hdpgMSpCMbtizzQa-105" value="" style="endArrow=none;html=1;rounded=0;exitX=1;exitY=0.5;exitDx=0;exitDy=0;entryX=0;entryY=0.5;entryDx=0;entryDy=0;" edge="1" parent="1" source="uhs0hdpgMSpCMbtizzQa-101" target="cto1Rn3HJPF4hdV79vc3-2">
          <mxGeometry width="50" height="50" relative="1" as="geometry">
            <mxPoint x="-100" y="485.86" as="sourcePoint" />
            <mxPoint y="485.86" as="targetPoint" />
            <Array as="points">
              <mxPoint x="-20" y="425" />
              <mxPoint x="-20" y="395" />
            </Array>
          </mxGeometry>
        </mxCell>
        <mxCell id="uhs0hdpgMSpCMbtizzQa-106" value="1" style="text;html=1;align=center;verticalAlign=middle;whiteSpace=wrap;rounded=0;" vertex="1" parent="1">
          <mxGeometry x="-70" y="400" width="60" height="30" as="geometry" />
        </mxCell>
        <mxCell id="uhs0hdpgMSpCMbtizzQa-107" value="N" style="text;html=1;align=center;verticalAlign=middle;whiteSpace=wrap;rounded=0;" vertex="1" parent="1">
          <mxGeometry x="-170" y="400" width="60" height="30" as="geometry" />
        </mxCell>
        <mxCell id="uhs0hdpgMSpCMbtizzQa-138" value="ADMIN ACCOUNT" style="shape=table;startSize=30;container=1;collapsible=1;childLayout=tableLayout;fixedRows=1;rowLines=0;fontStyle=1;align=center;resizeLast=1;html=1;" vertex="1" parent="1">
          <mxGeometry x="-340" y="880" width="180" height="180" as="geometry" />
        </mxCell>
        <mxCell id="uhs0hdpgMSpCMbtizzQa-139" value="" style="shape=tableRow;horizontal=0;startSize=0;swimlaneHead=0;swimlaneBody=0;fillColor=none;collapsible=0;dropTarget=0;points=[[0,0.5],[1,0.5]];portConstraint=eastwest;top=0;left=0;right=0;bottom=1;" vertex="1" parent="uhs0hdpgMSpCMbtizzQa-138">
          <mxGeometry y="30" width="180" height="30" as="geometry" />
        </mxCell>
        <mxCell id="uhs0hdpgMSpCMbtizzQa-140" value="PK" style="shape=partialRectangle;connectable=0;fillColor=none;top=0;left=0;bottom=0;right=0;fontStyle=1;overflow=hidden;whiteSpace=wrap;html=1;" vertex="1" parent="uhs0hdpgMSpCMbtizzQa-139">
          <mxGeometry width="30" height="30" as="geometry">
            <mxRectangle width="30" height="30" as="alternateBounds" />
          </mxGeometry>
        </mxCell>
        <mxCell id="uhs0hdpgMSpCMbtizzQa-141" value="AdAccountID" style="shape=partialRectangle;connectable=0;fillColor=none;top=0;left=0;bottom=0;right=0;align=left;spacingLeft=6;fontStyle=5;overflow=hidden;whiteSpace=wrap;html=1;" vertex="1" parent="uhs0hdpgMSpCMbtizzQa-139">
          <mxGeometry x="30" width="150" height="30" as="geometry">
            <mxRectangle width="150" height="30" as="alternateBounds" />
          </mxGeometry>
        </mxCell>
        <mxCell id="uhs0hdpgMSpCMbtizzQa-142" value="" style="shape=tableRow;horizontal=0;startSize=0;swimlaneHead=0;swimlaneBody=0;fillColor=none;collapsible=0;dropTarget=0;points=[[0,0.5],[1,0.5]];portConstraint=eastwest;top=0;left=0;right=0;bottom=0;" vertex="1" parent="uhs0hdpgMSpCMbtizzQa-138">
          <mxGeometry y="60" width="180" height="30" as="geometry" />
        </mxCell>
        <mxCell id="uhs0hdpgMSpCMbtizzQa-143" value="" style="shape=partialRectangle;connectable=0;fillColor=none;top=0;left=0;bottom=0;right=0;editable=1;overflow=hidden;whiteSpace=wrap;html=1;" vertex="1" parent="uhs0hdpgMSpCMbtizzQa-142">
          <mxGeometry width="30" height="30" as="geometry">
            <mxRectangle width="30" height="30" as="alternateBounds" />
          </mxGeometry>
        </mxCell>
        <mxCell id="uhs0hdpgMSpCMbtizzQa-144" value="Username" style="shape=partialRectangle;connectable=0;fillColor=none;top=0;left=0;bottom=0;right=0;align=left;spacingLeft=6;overflow=hidden;whiteSpace=wrap;html=1;" vertex="1" parent="uhs0hdpgMSpCMbtizzQa-142">
          <mxGeometry x="30" width="150" height="30" as="geometry">
            <mxRectangle width="150" height="30" as="alternateBounds" />
          </mxGeometry>
        </mxCell>
        <mxCell id="uhs0hdpgMSpCMbtizzQa-145" value="" style="shape=tableRow;horizontal=0;startSize=0;swimlaneHead=0;swimlaneBody=0;fillColor=none;collapsible=0;dropTarget=0;points=[[0,0.5],[1,0.5]];portConstraint=eastwest;top=0;left=0;right=0;bottom=0;" vertex="1" parent="uhs0hdpgMSpCMbtizzQa-138">
          <mxGeometry y="90" width="180" height="30" as="geometry" />
        </mxCell>
        <mxCell id="uhs0hdpgMSpCMbtizzQa-146" value="" style="shape=partialRectangle;connectable=0;fillColor=none;top=0;left=0;bottom=0;right=0;editable=1;overflow=hidden;whiteSpace=wrap;html=1;" vertex="1" parent="uhs0hdpgMSpCMbtizzQa-145">
          <mxGeometry width="30" height="30" as="geometry">
            <mxRectangle width="30" height="30" as="alternateBounds" />
          </mxGeometry>
        </mxCell>
        <mxCell id="uhs0hdpgMSpCMbtizzQa-147" value="Password" style="shape=partialRectangle;connectable=0;fillColor=none;top=0;left=0;bottom=0;right=0;align=left;spacingLeft=6;overflow=hidden;whiteSpace=wrap;html=1;" vertex="1" parent="uhs0hdpgMSpCMbtizzQa-145">
          <mxGeometry x="30" width="150" height="30" as="geometry">
            <mxRectangle width="150" height="30" as="alternateBounds" />
          </mxGeometry>
        </mxCell>
        <mxCell id="uhs0hdpgMSpCMbtizzQa-148" value="" style="shape=tableRow;horizontal=0;startSize=0;swimlaneHead=0;swimlaneBody=0;fillColor=none;collapsible=0;dropTarget=0;points=[[0,0.5],[1,0.5]];portConstraint=eastwest;top=0;left=0;right=0;bottom=0;" vertex="1" parent="uhs0hdpgMSpCMbtizzQa-138">
          <mxGeometry y="120" width="180" height="30" as="geometry" />
        </mxCell>
        <mxCell id="uhs0hdpgMSpCMbtizzQa-149" value="" style="shape=partialRectangle;connectable=0;fillColor=none;top=0;left=0;bottom=0;right=0;editable=1;overflow=hidden;whiteSpace=wrap;html=1;" vertex="1" parent="uhs0hdpgMSpCMbtizzQa-148">
          <mxGeometry width="30" height="30" as="geometry">
            <mxRectangle width="30" height="30" as="alternateBounds" />
          </mxGeometry>
        </mxCell>
        <mxCell id="uhs0hdpgMSpCMbtizzQa-150" value="" style="shape=partialRectangle;connectable=0;fillColor=none;top=0;left=0;bottom=0;right=0;align=left;spacingLeft=6;overflow=hidden;whiteSpace=wrap;html=1;" vertex="1" parent="uhs0hdpgMSpCMbtizzQa-148">
          <mxGeometry x="30" width="150" height="30" as="geometry">
            <mxRectangle width="150" height="30" as="alternateBounds" />
          </mxGeometry>
        </mxCell>
        <mxCell id="uhs0hdpgMSpCMbtizzQa-151" value="Department" style="shape=partialRectangle;connectable=0;fillColor=none;top=0;left=0;bottom=0;right=0;align=left;spacingLeft=6;overflow=hidden;whiteSpace=wrap;html=1;" vertex="1" parent="1">
          <mxGeometry x="-310" y="1000" width="150" height="30" as="geometry">
            <mxRectangle width="150" height="30" as="alternateBounds" />
          </mxGeometry>
        </mxCell>
        <mxCell id="uhs0hdpgMSpCMbtizzQa-152" value="" style="endArrow=none;html=1;rounded=0;exitX=1;exitY=0.5;exitDx=0;exitDy=0;entryX=0;entryY=0.5;entryDx=0;entryDy=0;" edge="1" parent="1" target="uhs0hdpgMSpCMbtizzQa-153">
          <mxGeometry width="50" height="50" relative="1" as="geometry">
            <mxPoint x="-570" y="925" as="sourcePoint" />
            <mxPoint x="-450" y="940" as="targetPoint" />
          </mxGeometry>
        </mxCell>
        <mxCell id="uhs0hdpgMSpCMbtizzQa-153" value="recieves" style="rhombus;whiteSpace=wrap;html=1;" vertex="1" parent="1">
          <mxGeometry x="-493" y="885" width="80" height="80" as="geometry" />
        </mxCell>
        <mxCell id="uhs0hdpgMSpCMbtizzQa-154" value="" style="endArrow=none;html=1;rounded=0;exitX=1;exitY=0.5;exitDx=0;exitDy=0;entryX=0;entryY=0.5;entryDx=0;entryDy=0;" edge="1" parent="1" source="uhs0hdpgMSpCMbtizzQa-153" target="uhs0hdpgMSpCMbtizzQa-139">
          <mxGeometry width="50" height="50" relative="1" as="geometry">
            <mxPoint x="-490" y="1000" as="sourcePoint" />
            <mxPoint x="-413" y="1000" as="targetPoint" />
          </mxGeometry>
        </mxCell>
        <mxCell id="uhs0hdpgMSpCMbtizzQa-155" value="1" style="text;html=1;align=center;verticalAlign=middle;whiteSpace=wrap;rounded=0;" vertex="1" parent="1">
          <mxGeometry x="-430" y="900" width="60" height="30" as="geometry" />
        </mxCell>
        <mxCell id="uhs0hdpgMSpCMbtizzQa-158" value="N" style="text;html=1;align=center;verticalAlign=middle;whiteSpace=wrap;rounded=0;" vertex="1" parent="1">
          <mxGeometry x="-530" y="900" width="60" height="30" as="geometry" />
        </mxCell>
        <mxCell id="fGX5bED9PHSFNP7jN1Jc-1" value="NOTIFICATION" style="rounded=0;whiteSpace=wrap;html=1;" vertex="1" parent="1">
          <mxGeometry x="635" y="1919.5" width="120" height="60" as="geometry" />
        </mxCell>
        <mxCell id="fGX5bED9PHSFNP7jN1Jc-19" value="&lt;u&gt;NotiID&lt;/u&gt;" style="ellipse;whiteSpace=wrap;html=1;" vertex="1" parent="1">
          <mxGeometry x="525" y="2050" width="70" height="50" as="geometry" />
        </mxCell>
        <mxCell id="fGX5bED9PHSFNP7jN1Jc-20" value="Title" style="ellipse;whiteSpace=wrap;html=1;" vertex="1" parent="1">
          <mxGeometry x="605" y="2070" width="90" height="50" as="geometry" />
        </mxCell>
        <mxCell id="fGX5bED9PHSFNP7jN1Jc-21" value="Description" style="ellipse;whiteSpace=wrap;html=1;" vertex="1" parent="1">
          <mxGeometry x="800" y="2050" width="90" height="50" as="geometry" />
        </mxCell>
        <mxCell id="fGX5bED9PHSFNP7jN1Jc-22" value="Creator" style="ellipse;whiteSpace=wrap;html=1;" vertex="1" parent="1">
          <mxGeometry x="525" y="1810" width="90" height="50" as="geometry" />
        </mxCell>
        <mxCell id="fGX5bED9PHSFNP7jN1Jc-23" value="Time" style="ellipse;whiteSpace=wrap;html=1;" vertex="1" parent="1">
          <mxGeometry x="640" y="1785" width="90" height="50" as="geometry" />
        </mxCell>
        <mxCell id="fGX5bED9PHSFNP7jN1Jc-24" value="Date" style="ellipse;whiteSpace=wrap;html=1;" vertex="1" parent="1">
          <mxGeometry x="760" y="1800.5" width="90" height="50" as="geometry" />
        </mxCell>
        <mxCell id="fGX5bED9PHSFNP7jN1Jc-28" value="" style="endArrow=none;html=1;rounded=0;entryX=0.5;entryY=1;entryDx=0;entryDy=0;exitX=0.5;exitY=0;exitDx=0;exitDy=0;" edge="1" parent="1" source="fGX5bED9PHSFNP7jN1Jc-19" target="fGX5bED9PHSFNP7jN1Jc-1">
          <mxGeometry width="50" height="50" relative="1" as="geometry">
            <mxPoint x="625" y="2029.5" as="sourcePoint" />
            <mxPoint x="675" y="1979.5" as="targetPoint" />
          </mxGeometry>
        </mxCell>
        <mxCell id="fGX5bED9PHSFNP7jN1Jc-29" value="" style="endArrow=none;html=1;rounded=0;exitX=0.5;exitY=0;exitDx=0;exitDy=0;" edge="1" parent="1" source="fGX5bED9PHSFNP7jN1Jc-20">
          <mxGeometry width="50" height="50" relative="1" as="geometry">
            <mxPoint x="465" y="2039.5" as="sourcePoint" />
            <mxPoint x="695" y="1979.5" as="targetPoint" />
          </mxGeometry>
        </mxCell>
        <mxCell id="fGX5bED9PHSFNP7jN1Jc-30" value="" style="endArrow=none;html=1;rounded=0;exitX=0.5;exitY=0;exitDx=0;exitDy=0;entryX=0.5;entryY=1;entryDx=0;entryDy=0;" edge="1" parent="1" source="fGX5bED9PHSFNP7jN1Jc-21" target="fGX5bED9PHSFNP7jN1Jc-1">
          <mxGeometry width="50" height="50" relative="1" as="geometry">
            <mxPoint x="550" y="2069.5" as="sourcePoint" />
            <mxPoint x="705" y="1989.5" as="targetPoint" />
          </mxGeometry>
        </mxCell>
        <mxCell id="fGX5bED9PHSFNP7jN1Jc-31" value="" style="endArrow=none;html=1;rounded=0;exitX=0.5;exitY=1;exitDx=0;exitDy=0;entryX=0.5;entryY=0;entryDx=0;entryDy=0;" edge="1" parent="1" source="fGX5bED9PHSFNP7jN1Jc-22" target="fGX5bED9PHSFNP7jN1Jc-1">
          <mxGeometry width="50" height="50" relative="1" as="geometry">
            <mxPoint x="650" y="2089.5" as="sourcePoint" />
            <mxPoint x="705" y="1989.5" as="targetPoint" />
          </mxGeometry>
        </mxCell>
        <mxCell id="fGX5bED9PHSFNP7jN1Jc-32" value="" style="endArrow=none;html=1;rounded=0;exitX=0.5;exitY=1;exitDx=0;exitDy=0;entryX=0.5;entryY=0;entryDx=0;entryDy=0;" edge="1" parent="1" source="fGX5bED9PHSFNP7jN1Jc-23" target="fGX5bED9PHSFNP7jN1Jc-1">
          <mxGeometry width="50" height="50" relative="1" as="geometry">
            <mxPoint x="760" y="2089.5" as="sourcePoint" />
            <mxPoint x="705" y="1989.5" as="targetPoint" />
          </mxGeometry>
        </mxCell>
        <mxCell id="fGX5bED9PHSFNP7jN1Jc-33" value="" style="endArrow=none;html=1;rounded=0;exitX=0.5;exitY=1;exitDx=0;exitDy=0;entryX=0.5;entryY=0;entryDx=0;entryDy=0;" edge="1" parent="1" source="fGX5bED9PHSFNP7jN1Jc-24" target="fGX5bED9PHSFNP7jN1Jc-1">
          <mxGeometry width="50" height="50" relative="1" as="geometry">
            <mxPoint x="860" y="2069.5" as="sourcePoint" />
            <mxPoint x="705" y="1989.5" as="targetPoint" />
          </mxGeometry>
        </mxCell>
        <mxCell id="fGX5bED9PHSFNP7jN1Jc-34" value="" style="endArrow=none;html=1;rounded=0;exitX=1;exitY=0.5;exitDx=0;exitDy=0;entryX=0;entryY=0.5;entryDx=0;entryDy=0;" edge="1" parent="1" source="fGX5bED9PHSFNP7jN1Jc-1" target="uhs0hdpgMSpCMbtizzQa-3">
          <mxGeometry width="50" height="50" relative="1" as="geometry">
            <mxPoint x="780" y="1949.25" as="sourcePoint" />
            <mxPoint x="1120" y="1948.25" as="targetPoint" />
          </mxGeometry>
        </mxCell>
        <mxCell id="fGX5bED9PHSFNP7jN1Jc-35" value="recieves" style="rhombus;whiteSpace=wrap;html=1;" vertex="1" parent="1">
          <mxGeometry x="975" y="1910" width="80" height="80" as="geometry" />
        </mxCell>
        <mxCell id="fGX5bED9PHSFNP7jN1Jc-36" value="&lt;font style=&quot;font-size: 18px;&quot;&gt;&lt;b&gt;1&lt;/b&gt;&lt;/font&gt;" style="text;html=1;align=center;verticalAlign=middle;whiteSpace=wrap;rounded=0;" vertex="1" parent="1">
          <mxGeometry x="1040" y="1919.5" width="60" height="30" as="geometry" />
        </mxCell>
        <mxCell id="fGX5bED9PHSFNP7jN1Jc-37" value="&lt;b&gt;&lt;font style=&quot;font-size: 18px;&quot;&gt;n&lt;/font&gt;&lt;/b&gt;" style="text;html=1;align=center;verticalAlign=middle;whiteSpace=wrap;rounded=0;" vertex="1" parent="1">
          <mxGeometry x="930" y="1919.5" width="60" height="30" as="geometry" />
        </mxCell>
        <mxCell id="fGX5bED9PHSFNP7jN1Jc-87" value="ADMIN ACCOUNT" style="rounded=0;whiteSpace=wrap;html=1;" vertex="1" parent="1">
          <mxGeometry x="1279" y="2320" width="120" height="60" as="geometry" />
        </mxCell>
        <mxCell id="fGX5bED9PHSFNP7jN1Jc-88" value="&lt;u&gt;AdAccountID&lt;/u&gt;" style="ellipse;whiteSpace=wrap;html=1;" vertex="1" parent="1">
          <mxGeometry x="1130" y="2440" width="70" height="50" as="geometry" />
        </mxCell>
        <mxCell id="fGX5bED9PHSFNP7jN1Jc-89" value="Username" style="ellipse;whiteSpace=wrap;html=1;" vertex="1" parent="1">
          <mxGeometry x="1240.5" y="2440" width="79" height="50" as="geometry" />
        </mxCell>
        <mxCell id="fGX5bED9PHSFNP7jN1Jc-90" value="Password" style="ellipse;whiteSpace=wrap;html=1;" vertex="1" parent="1">
          <mxGeometry x="1360" y="2440" width="70" height="50" as="geometry" />
        </mxCell>
        <mxCell id="fGX5bED9PHSFNP7jN1Jc-91" value="" style="endArrow=none;html=1;rounded=0;entryX=0.5;entryY=1;entryDx=0;entryDy=0;exitX=0.5;exitY=0;exitDx=0;exitDy=0;" edge="1" parent="1" source="fGX5bED9PHSFNP7jN1Jc-89" target="fGX5bED9PHSFNP7jN1Jc-87">
          <mxGeometry width="50" height="50" relative="1" as="geometry">
            <mxPoint x="1339" y="2450" as="sourcePoint" />
            <mxPoint x="1339" y="2400" as="targetPoint" />
          </mxGeometry>
        </mxCell>
        <mxCell id="fGX5bED9PHSFNP7jN1Jc-92" value="" style="endArrow=none;html=1;rounded=0;entryX=0.5;entryY=1;entryDx=0;entryDy=0;exitX=0.5;exitY=0;exitDx=0;exitDy=0;" edge="1" parent="1" source="fGX5bED9PHSFNP7jN1Jc-88" target="fGX5bED9PHSFNP7jN1Jc-87">
          <mxGeometry width="50" height="50" relative="1" as="geometry">
            <mxPoint x="1349" y="2460" as="sourcePoint" />
            <mxPoint x="1349" y="2390" as="targetPoint" />
          </mxGeometry>
        </mxCell>
        <mxCell id="fGX5bED9PHSFNP7jN1Jc-93" value="" style="endArrow=none;html=1;rounded=0;exitX=0.5;exitY=0;exitDx=0;exitDy=0;" edge="1" parent="1" source="fGX5bED9PHSFNP7jN1Jc-90">
          <mxGeometry width="50" height="50" relative="1" as="geometry">
            <mxPoint x="1304" y="2460" as="sourcePoint" />
            <mxPoint x="1339" y="2380" as="targetPoint" />
          </mxGeometry>
        </mxCell>
        <mxCell id="fGX5bED9PHSFNP7jN1Jc-94" value="Department" style="ellipse;whiteSpace=wrap;html=1;" vertex="1" parent="1">
          <mxGeometry x="1470" y="2440" width="70" height="50" as="geometry" />
        </mxCell>
        <mxCell id="fGX5bED9PHSFNP7jN1Jc-95" value="" style="endArrow=none;html=1;rounded=0;exitX=0.5;exitY=0;exitDx=0;exitDy=0;entryX=0.5;entryY=1;entryDx=0;entryDy=0;" edge="1" parent="1" source="fGX5bED9PHSFNP7jN1Jc-94" target="fGX5bED9PHSFNP7jN1Jc-87">
          <mxGeometry width="50" height="50" relative="1" as="geometry">
            <mxPoint x="1405" y="2450" as="sourcePoint" />
            <mxPoint x="1349" y="2390" as="targetPoint" />
          </mxGeometry>
        </mxCell>
        <mxCell id="fGX5bED9PHSFNP7jN1Jc-96" value="" style="endArrow=none;html=1;rounded=0;exitX=1;exitY=0.5;exitDx=0;exitDy=0;entryX=0;entryY=0.5;entryDx=0;entryDy=0;" edge="1" parent="1" source="fGX5bED9PHSFNP7jN1Jc-122" target="fGX5bED9PHSFNP7jN1Jc-87">
          <mxGeometry width="50" height="50" relative="1" as="geometry">
            <mxPoint x="775" y="2350" as="sourcePoint" />
            <mxPoint x="1260" y="2069.13" as="targetPoint" />
          </mxGeometry>
        </mxCell>
        <mxCell id="fGX5bED9PHSFNP7jN1Jc-97" value="recieves" style="rhombus;whiteSpace=wrap;html=1;" vertex="1" parent="1">
          <mxGeometry x="1020" y="2310" width="80" height="80" as="geometry" />
        </mxCell>
        <mxCell id="fGX5bED9PHSFNP7jN1Jc-98" value="&lt;font style=&quot;font-size: 18px;&quot;&gt;&lt;b&gt;1&lt;/b&gt;&lt;/font&gt;" style="text;html=1;align=center;verticalAlign=middle;whiteSpace=wrap;rounded=0;" vertex="1" parent="1">
          <mxGeometry x="1085" y="2320" width="60" height="30" as="geometry" />
        </mxCell>
        <mxCell id="fGX5bED9PHSFNP7jN1Jc-99" value="&lt;b&gt;&lt;font style=&quot;font-size: 18px;&quot;&gt;n&lt;/font&gt;&lt;/b&gt;" style="text;html=1;align=center;verticalAlign=middle;whiteSpace=wrap;rounded=0;" vertex="1" parent="1">
          <mxGeometry x="970" y="2320" width="60" height="30" as="geometry" />
        </mxCell>
        <mxCell id="fGX5bED9PHSFNP7jN1Jc-100" value="Date" style="shape=partialRectangle;connectable=0;fillColor=none;top=0;left=0;bottom=0;right=0;align=left;spacingLeft=6;overflow=hidden;whiteSpace=wrap;html=1;" vertex="1" parent="1">
          <mxGeometry x="-380" y="591" width="150" height="30" as="geometry">
            <mxRectangle width="150" height="30" as="alternateBounds" />
          </mxGeometry>
        </mxCell>
        <mxCell id="fGX5bED9PHSFNP7jN1Jc-101" value="ADMIN NOTIFICATION" style="shape=table;startSize=30;container=1;collapsible=1;childLayout=tableLayout;fixedRows=1;rowLines=0;fontStyle=1;align=center;resizeLast=1;html=1;fillColor=#FFFFFF;" vertex="1" parent="1">
          <mxGeometry x="-750" y="880" width="180" height="290" as="geometry" />
        </mxCell>
        <mxCell id="fGX5bED9PHSFNP7jN1Jc-102" value="" style="shape=tableRow;horizontal=0;startSize=0;swimlaneHead=0;swimlaneBody=0;fillColor=none;collapsible=0;dropTarget=0;points=[[0,0.5],[1,0.5]];portConstraint=eastwest;top=0;left=0;right=0;bottom=1;" vertex="1" parent="fGX5bED9PHSFNP7jN1Jc-101">
          <mxGeometry y="30" width="180" height="30" as="geometry" />
        </mxCell>
        <mxCell id="fGX5bED9PHSFNP7jN1Jc-103" value="PK" style="shape=partialRectangle;connectable=0;fillColor=none;top=0;left=0;bottom=0;right=0;fontStyle=1;overflow=hidden;whiteSpace=wrap;html=1;" vertex="1" parent="fGX5bED9PHSFNP7jN1Jc-102">
          <mxGeometry width="30" height="30" as="geometry">
            <mxRectangle width="30" height="30" as="alternateBounds" />
          </mxGeometry>
        </mxCell>
        <mxCell id="fGX5bED9PHSFNP7jN1Jc-104" value="NotiID" style="shape=partialRectangle;connectable=0;fillColor=none;top=0;left=0;bottom=0;right=0;align=left;spacingLeft=6;fontStyle=5;overflow=hidden;whiteSpace=wrap;html=1;" vertex="1" parent="fGX5bED9PHSFNP7jN1Jc-102">
          <mxGeometry x="30" width="150" height="30" as="geometry">
            <mxRectangle width="150" height="30" as="alternateBounds" />
          </mxGeometry>
        </mxCell>
        <mxCell id="fGX5bED9PHSFNP7jN1Jc-105" value="" style="shape=tableRow;horizontal=0;startSize=0;swimlaneHead=0;swimlaneBody=0;fillColor=none;collapsible=0;dropTarget=0;points=[[0,0.5],[1,0.5]];portConstraint=eastwest;top=0;left=0;right=0;bottom=0;" vertex="1" parent="fGX5bED9PHSFNP7jN1Jc-101">
          <mxGeometry y="60" width="180" height="30" as="geometry" />
        </mxCell>
        <mxCell id="fGX5bED9PHSFNP7jN1Jc-106" value="" style="shape=partialRectangle;connectable=0;fillColor=none;top=0;left=0;bottom=0;right=0;editable=1;overflow=hidden;whiteSpace=wrap;html=1;" vertex="1" parent="fGX5bED9PHSFNP7jN1Jc-105">
          <mxGeometry width="30" height="30" as="geometry">
            <mxRectangle width="30" height="30" as="alternateBounds" />
          </mxGeometry>
        </mxCell>
        <mxCell id="fGX5bED9PHSFNP7jN1Jc-107" value="AdAccountID" style="shape=partialRectangle;connectable=0;fillColor=none;top=0;left=0;bottom=0;right=0;align=left;spacingLeft=6;overflow=hidden;whiteSpace=wrap;html=1;" vertex="1" parent="fGX5bED9PHSFNP7jN1Jc-105">
          <mxGeometry x="30" width="150" height="30" as="geometry">
            <mxRectangle width="150" height="30" as="alternateBounds" />
          </mxGeometry>
        </mxCell>
        <mxCell id="fGX5bED9PHSFNP7jN1Jc-108" value="" style="shape=tableRow;horizontal=0;startSize=0;swimlaneHead=0;swimlaneBody=0;fillColor=none;collapsible=0;dropTarget=0;points=[[0,0.5],[1,0.5]];portConstraint=eastwest;top=0;left=0;right=0;bottom=0;" vertex="1" parent="fGX5bED9PHSFNP7jN1Jc-101">
          <mxGeometry y="90" width="180" height="30" as="geometry" />
        </mxCell>
        <mxCell id="fGX5bED9PHSFNP7jN1Jc-109" value="" style="shape=partialRectangle;connectable=0;fillColor=none;top=0;left=0;bottom=0;right=0;editable=1;overflow=hidden;whiteSpace=wrap;html=1;" vertex="1" parent="fGX5bED9PHSFNP7jN1Jc-108">
          <mxGeometry width="30" height="30" as="geometry">
            <mxRectangle width="30" height="30" as="alternateBounds" />
          </mxGeometry>
        </mxCell>
        <mxCell id="fGX5bED9PHSFNP7jN1Jc-110" value="Title" style="shape=partialRectangle;connectable=0;fillColor=none;top=0;left=0;bottom=0;right=0;align=left;spacingLeft=6;overflow=hidden;whiteSpace=wrap;html=1;" vertex="1" parent="fGX5bED9PHSFNP7jN1Jc-108">
          <mxGeometry x="30" width="150" height="30" as="geometry">
            <mxRectangle width="150" height="30" as="alternateBounds" />
          </mxGeometry>
        </mxCell>
        <mxCell id="fGX5bED9PHSFNP7jN1Jc-111" value="" style="shape=tableRow;horizontal=0;startSize=0;swimlaneHead=0;swimlaneBody=0;fillColor=none;collapsible=0;dropTarget=0;points=[[0,0.5],[1,0.5]];portConstraint=eastwest;top=0;left=0;right=0;bottom=0;" vertex="1" parent="fGX5bED9PHSFNP7jN1Jc-101">
          <mxGeometry y="120" width="180" height="30" as="geometry" />
        </mxCell>
        <mxCell id="fGX5bED9PHSFNP7jN1Jc-112" value="" style="shape=partialRectangle;connectable=0;fillColor=none;top=0;left=0;bottom=0;right=0;editable=1;overflow=hidden;whiteSpace=wrap;html=1;" vertex="1" parent="fGX5bED9PHSFNP7jN1Jc-111">
          <mxGeometry width="30" height="30" as="geometry">
            <mxRectangle width="30" height="30" as="alternateBounds" />
          </mxGeometry>
        </mxCell>
        <mxCell id="fGX5bED9PHSFNP7jN1Jc-113" value="NotiType" style="shape=partialRectangle;connectable=0;fillColor=none;top=0;left=0;bottom=0;right=0;align=left;spacingLeft=6;overflow=hidden;whiteSpace=wrap;html=1;" vertex="1" parent="fGX5bED9PHSFNP7jN1Jc-111">
          <mxGeometry x="30" width="150" height="30" as="geometry">
            <mxRectangle width="150" height="30" as="alternateBounds" />
          </mxGeometry>
        </mxCell>
        <mxCell id="fGX5bED9PHSFNP7jN1Jc-114" value="Description" style="shape=partialRectangle;connectable=0;fillColor=none;top=0;left=0;bottom=0;right=0;align=left;spacingLeft=6;overflow=hidden;whiteSpace=wrap;html=1;" vertex="1" parent="1">
          <mxGeometry x="-720" y="1030" width="150" height="30" as="geometry">
            <mxRectangle width="150" height="30" as="alternateBounds" />
          </mxGeometry>
        </mxCell>
        <mxCell id="fGX5bED9PHSFNP7jN1Jc-115" value="Creator" style="shape=partialRectangle;connectable=0;fillColor=none;top=0;left=0;bottom=0;right=0;align=left;spacingLeft=6;overflow=hidden;whiteSpace=wrap;html=1;" vertex="1" parent="1">
          <mxGeometry x="-720" y="1061" width="150" height="30" as="geometry">
            <mxRectangle width="150" height="30" as="alternateBounds" />
          </mxGeometry>
        </mxCell>
        <mxCell id="fGX5bED9PHSFNP7jN1Jc-116" value="Time" style="shape=partialRectangle;connectable=0;fillColor=none;top=0;left=0;bottom=0;right=0;align=left;spacingLeft=6;overflow=hidden;whiteSpace=wrap;html=1;" vertex="1" parent="1">
          <mxGeometry x="-720" y="1091" width="150" height="30" as="geometry">
            <mxRectangle width="150" height="30" as="alternateBounds" />
          </mxGeometry>
        </mxCell>
        <mxCell id="fGX5bED9PHSFNP7jN1Jc-117" value="FK1" style="shape=partialRectangle;connectable=0;fillColor=none;top=0;left=0;bottom=0;right=0;fontStyle=1;overflow=hidden;whiteSpace=wrap;html=1;" vertex="1" parent="1">
          <mxGeometry x="-750" y="940" width="30" height="30" as="geometry">
            <mxRectangle width="30" height="30" as="alternateBounds" />
          </mxGeometry>
        </mxCell>
        <mxCell id="fGX5bED9PHSFNP7jN1Jc-118" value="Date" style="shape=partialRectangle;connectable=0;fillColor=none;top=0;left=0;bottom=0;right=0;align=left;spacingLeft=6;overflow=hidden;whiteSpace=wrap;html=1;" vertex="1" parent="1">
          <mxGeometry x="-720" y="1121" width="150" height="30" as="geometry">
            <mxRectangle width="150" height="30" as="alternateBounds" />
          </mxGeometry>
        </mxCell>
        <mxCell id="fGX5bED9PHSFNP7jN1Jc-119" value="NotiType" style="ellipse;whiteSpace=wrap;html=1;" vertex="1" parent="1">
          <mxGeometry x="705" y="2070" width="90" height="50" as="geometry" />
        </mxCell>
        <mxCell id="fGX5bED9PHSFNP7jN1Jc-120" value="" style="endArrow=none;html=1;rounded=0;exitX=0.5;exitY=0;exitDx=0;exitDy=0;entryX=0.5;entryY=1;entryDx=0;entryDy=0;" edge="1" parent="1" source="fGX5bED9PHSFNP7jN1Jc-119" target="fGX5bED9PHSFNP7jN1Jc-1">
          <mxGeometry width="50" height="50" relative="1" as="geometry">
            <mxPoint x="705" y="2095" as="sourcePoint" />
            <mxPoint x="705" y="1990" as="targetPoint" />
          </mxGeometry>
        </mxCell>
        <mxCell id="fGX5bED9PHSFNP7jN1Jc-122" value="ADMIN NOTIFICATION" style="rounded=0;whiteSpace=wrap;html=1;" vertex="1" parent="1">
          <mxGeometry x="650" y="2320" width="120" height="60" as="geometry" />
        </mxCell>
        <mxCell id="fGX5bED9PHSFNP7jN1Jc-123" value="&lt;u&gt;NotiID&lt;/u&gt;" style="ellipse;whiteSpace=wrap;html=1;" vertex="1" parent="1">
          <mxGeometry x="540" y="2447.5" width="70" height="50" as="geometry" />
        </mxCell>
        <mxCell id="fGX5bED9PHSFNP7jN1Jc-124" value="Title" style="ellipse;whiteSpace=wrap;html=1;" vertex="1" parent="1">
          <mxGeometry x="620" y="2467.5" width="90" height="50" as="geometry" />
        </mxCell>
        <mxCell id="fGX5bED9PHSFNP7jN1Jc-125" value="Description" style="ellipse;whiteSpace=wrap;html=1;" vertex="1" parent="1">
          <mxGeometry x="815" y="2447.5" width="90" height="50" as="geometry" />
        </mxCell>
        <mxCell id="fGX5bED9PHSFNP7jN1Jc-126" value="Creator" style="ellipse;whiteSpace=wrap;html=1;" vertex="1" parent="1">
          <mxGeometry x="540" y="2207.5" width="90" height="50" as="geometry" />
        </mxCell>
        <mxCell id="fGX5bED9PHSFNP7jN1Jc-127" value="Time" style="ellipse;whiteSpace=wrap;html=1;" vertex="1" parent="1">
          <mxGeometry x="655" y="2182.5" width="90" height="50" as="geometry" />
        </mxCell>
        <mxCell id="fGX5bED9PHSFNP7jN1Jc-128" value="Date" style="ellipse;whiteSpace=wrap;html=1;" vertex="1" parent="1">
          <mxGeometry x="775" y="2198" width="90" height="50" as="geometry" />
        </mxCell>
        <mxCell id="fGX5bED9PHSFNP7jN1Jc-129" value="" style="endArrow=none;html=1;rounded=0;entryX=0.5;entryY=1;entryDx=0;entryDy=0;exitX=0.5;exitY=0;exitDx=0;exitDy=0;" edge="1" parent="1" source="fGX5bED9PHSFNP7jN1Jc-123" target="fGX5bED9PHSFNP7jN1Jc-122">
          <mxGeometry width="50" height="50" relative="1" as="geometry">
            <mxPoint x="640" y="2427" as="sourcePoint" />
            <mxPoint x="690" y="2377" as="targetPoint" />
          </mxGeometry>
        </mxCell>
        <mxCell id="fGX5bED9PHSFNP7jN1Jc-130" value="" style="endArrow=none;html=1;rounded=0;exitX=0.5;exitY=0;exitDx=0;exitDy=0;" edge="1" parent="1" source="fGX5bED9PHSFNP7jN1Jc-124">
          <mxGeometry width="50" height="50" relative="1" as="geometry">
            <mxPoint x="480" y="2437" as="sourcePoint" />
            <mxPoint x="710" y="2380" as="targetPoint" />
          </mxGeometry>
        </mxCell>
        <mxCell id="fGX5bED9PHSFNP7jN1Jc-131" value="" style="endArrow=none;html=1;rounded=0;exitX=0.5;exitY=0;exitDx=0;exitDy=0;entryX=0.5;entryY=1;entryDx=0;entryDy=0;" edge="1" parent="1" source="fGX5bED9PHSFNP7jN1Jc-125" target="fGX5bED9PHSFNP7jN1Jc-122">
          <mxGeometry width="50" height="50" relative="1" as="geometry">
            <mxPoint x="565" y="2467" as="sourcePoint" />
            <mxPoint x="720" y="2387" as="targetPoint" />
          </mxGeometry>
        </mxCell>
        <mxCell id="fGX5bED9PHSFNP7jN1Jc-132" value="" style="endArrow=none;html=1;rounded=0;exitX=0.5;exitY=1;exitDx=0;exitDy=0;entryX=0.5;entryY=0;entryDx=0;entryDy=0;" edge="1" parent="1" source="fGX5bED9PHSFNP7jN1Jc-126" target="fGX5bED9PHSFNP7jN1Jc-122">
          <mxGeometry width="50" height="50" relative="1" as="geometry">
            <mxPoint x="665" y="2487" as="sourcePoint" />
            <mxPoint x="720" y="2387" as="targetPoint" />
          </mxGeometry>
        </mxCell>
        <mxCell id="fGX5bED9PHSFNP7jN1Jc-133" value="" style="endArrow=none;html=1;rounded=0;exitX=0.5;exitY=1;exitDx=0;exitDy=0;entryX=0.5;entryY=0;entryDx=0;entryDy=0;" edge="1" parent="1" source="fGX5bED9PHSFNP7jN1Jc-127" target="fGX5bED9PHSFNP7jN1Jc-122">
          <mxGeometry width="50" height="50" relative="1" as="geometry">
            <mxPoint x="775" y="2487" as="sourcePoint" />
            <mxPoint x="720" y="2387" as="targetPoint" />
          </mxGeometry>
        </mxCell>
        <mxCell id="fGX5bED9PHSFNP7jN1Jc-134" value="" style="endArrow=none;html=1;rounded=0;exitX=0.5;exitY=1;exitDx=0;exitDy=0;entryX=0.5;entryY=0;entryDx=0;entryDy=0;" edge="1" parent="1" source="fGX5bED9PHSFNP7jN1Jc-128" target="fGX5bED9PHSFNP7jN1Jc-122">
          <mxGeometry width="50" height="50" relative="1" as="geometry">
            <mxPoint x="875" y="2467" as="sourcePoint" />
            <mxPoint x="720" y="2387" as="targetPoint" />
          </mxGeometry>
        </mxCell>
        <mxCell id="fGX5bED9PHSFNP7jN1Jc-135" value="NotiType" style="ellipse;whiteSpace=wrap;html=1;" vertex="1" parent="1">
          <mxGeometry x="720" y="2467.5" width="90" height="50" as="geometry" />
        </mxCell>
        <mxCell id="fGX5bED9PHSFNP7jN1Jc-136" value="" style="endArrow=none;html=1;rounded=0;exitX=0.5;exitY=0;exitDx=0;exitDy=0;entryX=0.5;entryY=1;entryDx=0;entryDy=0;" edge="1" parent="1" source="fGX5bED9PHSFNP7jN1Jc-135" target="fGX5bED9PHSFNP7jN1Jc-122">
          <mxGeometry width="50" height="50" relative="1" as="geometry">
            <mxPoint x="720" y="2492.5" as="sourcePoint" />
            <mxPoint x="720" y="2387.5" as="targetPoint" />
          </mxGeometry>
        </mxCell>
      </root>
    </mxGraphModel>
  </diagram>
</mxfile>
